/* XPM */
static char *result[] = {
/* columns rows colors chars-per-pixel */
"60 44 160 2 ",
"   c #100C0B",
".  c #1A110C",
"X  c #161112",
"o  c #1E1612",
"O  c #1F1916",
"+  c #25180E",
"@  c #291B0F",
"#  c #241B15",
"$  c #2C1E13",
"%  c #211B19",
"&  c #2F2113",
"*  c #2D221B",
"=  c #352414",
"-  c #3B2715",
";  c #3E2C17",
":  c #342619",
">  c #352A1D",
",  c #3C2C1D",
"<  c #3F311E",
"1  c #2A2422",
"2  c #332722",
"3  c #352C23",
"4  c #3A2E21",
"5  c #3F3122",
"6  c #442D15",
"7  c #422E1A",
"8  c #4D3316",
"9  c #44321D",
"0  c #4B361C",
"q  c #51391E",
"w  c #423423",
"e  c #4A3722",
"r  c #473926",
"t  c #4A3924",
"y  c #44382B",
"u  c #4B3D2B",
"i  c #523D25",
"p  c #523F29",
"a  c #564127",
"s  c #5A4226",
"d  c #54422C",
"f  c #5B462B",
"g  c #5E492C",
"h  c #4E4030",
"j  c #524332",
"k  c #594631",
"l  c #5C4A33",
"z  c #5E4C39",
"x  c #634624",
"c  c #644827",
"v  c #6A4925",
"b  c #624A2C",
"n  c #684E2C",
"m  c #6C512E",
"M  c #77562B",
"N  c #795428",
"B  c #7E5A2E",
"V  c #624D33",
"C  c #694F32",
"Z  c #655234",
"A  c #6C5333",
"S  c #65533A",
"D  c #6A5539",
"F  c #6D5A3C",
"G  c #725634",
"H  c #765A34",
"J  c #7B5D35",
"K  c #745C3B",
"L  c #7B5E3A",
"P  c #7E6037",
"I  c #76613D",
"U  c #7D613B",
"Y  c #695741",
"T  c #6E5B42",
"R  c #735B44",
"E  c #7A5F42",
"W  c #756243",
"Q  c #7E6241",
"!  c #7C664B",
"~  c #825B2D",
"^  c #846136",
"/  c #8F6735",
"(  c #83653C",
")  c #89663B",
"_  c #87693B",
"`  c #8C6A3C",
"'  c #926C3D",
"]  c #94703F",
"[  c #9C723C",
"{  c #A3793F",
"}  c #846644",
"|  c #886741",
" . c #866A41",
".. c #8B6D43",
"X. c #846C49",
"o. c #8C6B4A",
"O. c #946E41",
"+. c #8E7042",
"@. c #8D714A",
"#. c #937244",
"$. c #9A7542",
"%. c #91724A",
"&. c #9B7748",
"*. c #977A4B",
"=. c #9D7B4C",
"-. c #887350",
";. c #927553",
":. c #A47B45",
">. c #AB7E43",
",. c #A37E4A",
"<. c #9D8254",
"1. c #A5804D",
"2. c #AB834B",
"3. c #B5874A",
"4. c #B6894C",
"5. c #BA8D4D",
"6. c #A38251",
"7. c #A98754",
"8. c #A68856",
"9. c #AC8953",
"0. c #AB8B5E",
"q. c #B58D53",
"w. c #BA8E52",
"e. c #B38C58",
"r. c #B59257",
"t. c #BB9255",
"y. c #B4925D",
"u. c #BC965C",
"i. c #BF9A5C",
"p. c #AB9062",
"a. c #B99762",
"s. c #B79863",
"d. c #BA9B61",
"f. c #B79A6C",
"g. c #BB9C68",
"h. c #C29452",
"j. c #C59857",
"k. c #CB9B56",
"l. c #C79D5B",
"z. c #CAA15E",
"x. c #D3A45E",
"c. c #C49E63",
"v. c #CA9E60",
"b. c #C6A364",
"n. c #C9A163",
"m. c #C3A469",
"M. c #C9A96D",
"N. c #D0A360",
"B. c #D4A862",
"V. c #DDAD62",
"C. c #D4AE6E",
"Z. c #C9AC72",
"A. c #D1AD71",
"S. c #DFBC78",
"D. c #E3B56B",
"F. c #E2B86A",
"G. c #CFB682",
"H. c #CAB78C",
"J. c #D2BA8C",
"K. c None",
/* pixels */
"K.K.K.K.K.K.K.K.K.K.K.K.K.K.#.:.) } K.K.K.K.K.K.K.K.K.K.K.K.K.K.K.K.K.K.K.K.K.K.K.K.K.K.K.K.K.K.K.K.K.K.K.K.K.K.K.K.K.K.",
"K.K.K.K.K.K.K.K.K.K.K.K.,.j.n.&.] ( #.=.K.K.K.K.K.K.K.K.K.K.K.K.K.K.K.K.K.K.K.K.K.K.K.K.K.K.K.K.K.K.K.K.K.K.K.K.K.K.K.K.",
"K.K.K.K.X.K.K.K.K.6.V K...k.} @.T * 9  .7.K.K.K.K.K.K.K.K.K.K.K.K.K.K.K.K.K.K.K.K.K.K.K.K.K.K.K.K.K.K.K.K.K.K.K.K.K.K.K.",
"K.K.K.e 4 ` K.K.G q.S K.:._ I  .K K.K.K.i 9.K.K.K.K.K.K.K.K.K.K.K.K.K.K.K.K.K.K.K.K.K.K.K.K.K.K.K.K.K.K.K.K.K.K.K.K.K.K.",
"K.K.i $.u w h t.' B.K.K._ ` < F r 9 1.K.K.K.L K.K.K.K.K.K.K.K.K.K.K.K.K.K.K.K.K.K.K.K.K.K.K.K.K.K.K.K.K.K.K.K.K.K.K.K.K.",
"b g G u k l w ; ,.i.D ,.d i.5 h.y.F z g u.K.g K.K.K.K.K.K.K.K.K.K.K.K.K.K.K.K.K.K.K.K.K.K.K.K.K.K.K.K.K.K.K.K.K.K.K.K.K.",
"K.s ` D d A ( K.p e #.A K.z.W a 4.t.P I b ! K.M.K.K.K.K.K.K.K.K.K.K.K.K.K.K.K.K.K.K.K.K.K.K.K.K.K.K.K.K.K.K.K.K.K.K.K.K.",
"D l D l  . .z K.K.K.K.K.K.r.W G 5.$.] r.h M.K.t.K.K.K.K.K.K.K.K.K.K.K.K.K.K.K.K.K.K.K.K.K.K.K.K.K.K.K.K.K.K.K.K.K.K.K.K.",
"| 5 r f A ..K.K.K.K.K.K.K.y.{ ( X.j d V ( 1.g ( K.K.K.K.K.K.K.K.K.K.K.K.K.K.K.K.K.K.K.K.K.K.K.K.K.K.K.K.K.K.K.K.K.K.K.K.",
"| f d w g K.K.K.K.K.K.K.r., H ^ 4. .-.d ' $ K A.K.K.K.K.K.K.K.K.K.K.K.K.K.K.K.K.K.K.K.K.K.K.K.K.K.K.K.K.K.K.K.K.K.K.K.K.",
"K.K.4 K.d d l K.K.K.K.K.V S h d g s K.9 r g _ K.K.K.K.K.K.K.K.K.K.K.K.K.K.K.K.K.K.K.K.K.K.K.K.K.K.K.K.K.K.K.K.K.K.K.K.K.",
"K.K.K.6.l w.K p.K.K.K.2.=.f 2.,._ K.K.P *.K.P K.K.K.K.K.K.K.K.K.K.K.K.K.K.K.K.K.K.K.K.K.K.K.K.K.K.K.K.K.K.K.K.K.K.K.K.K.",
"K.K.K.| :.7.d J.K.K.K.r b 6.L d *.K.K.D 3 3 [ F.K.K.K.K.K.K.K.K.K.K.K.K.K.K.K.K.K.K.K.K.K.K.K.K.K.K.K.K.K.K.K.K.K.K.K.K.",
"K.K.K.C $.: j K K.K.q.F 4 b &.#.K.K.K.K.< : H k.K.K.K.K.K.K.K.K.K.K.K.K.K.K.K.K.K.K.K.K.K.K.K.K.K.K.K.K.K.K.K.K.K.K.K.K.",
"K.K.K.( k K.} #.K.%.G %.6.S K %.K.K.5.5.h.-.d K.K.K.K.K.K.K.K.K.K.K.K.K.K.K.K.K.K.K.K.K.K.K.K.K.K.K.K.K.K.K.K.K.K.K.K.K.",
"K.K.K.K.K.K.t.D ^ w w c h.,.1.K.K.K.>.d #.b.e %.K.K.K.K.K.K.K.K.K.K.K.K.K.K.K.K.K.K.K.K.K.K.K.K.K.K.K.K.K.K.K.K.K.K.K.K.",
"K.K.K.K.K.1.&.$.g ] D S K n n.K.K.%.f 5.&.P b b $.K.c.K.K.K.K.K.K.K.K.K.K.K.K.K.K.K.K.K.K.K.K.K.K.K.K.K.K.K.K.K.K.K.K.K.",
"K.K.K.K.O.q.c :.V #.U 1.+.) a H.,.=.r & ' L ] g 5 , 9 L K.K.K.K.K.K.K.K.K.K.K.K.K.K.K.K.K.K.K.K.K.K.K.K.K.K.K.K.K.K.K.K.",
"K.K.K.K.a q.c.D I > < ^ ,.:.g b.q 9 m 5.> K.b G 3 G i u H R K.K.K.K.K.K.K.K.K.K.K.K.K.K.K.K.K.K.K.K.K.K.K.K.K.K.K.K.K.K.",
"K.K.K.K.o.' Z.0.r I D d ` &.=.:.> M V [ w.K.K.K.a y / J K N u | K.K.K.K.K.K.K.K.K.K.K.K.K.K.K.K.K.K.K.K.K.K.K.K.K.K.K.K.",
"K.K.K.K.K.^ S.%.K.K.#.K b w C 9 h D W K | K.K.K.X.j 4 6 7 h.<.m.b K.K.K.K.K.K.K.K.K.K.K.K.K.K.K.K.K.K.K.K.K.K.K.K.K.K.K.",
"K.K.K.K.K.K.) n.s.K.K.K.D V K.G 9 e K.K.K.K.K.K.K.K.K.K.q @ #.9.g.` R K.K.K.K.K.K.K.K.K.K.K.K.K.K.K.K.K.K.K.K.K.K.K.K.K.",
"K.K.K.K.K.K.K.F O.e.;.K.K.K.g c i K.K.K.K.K.K.K.K.K.K.K.K.Q x s ; ,.V.n R K.K.K.K.K.K.K.K.K.K.K.K.K.K.K.K.K.K.K.K.K.K.K.",
"K.K.K.K.K.K.K.K.K.J G ` ` ( K.K.K.K.K.K.K.K.K.K.K.K.K.K.K.K.K.K.k - ~ 3.x.g ;.K.K.K.K.K.K.K.K.K.K.K.K.K.K.K.K.K.K.K.K.K.",
"K.K.K.K.K.K.K.K.K.K.K.K.K.K.K.K.K.K.K.K.K.K.K.K.K.K.K.K.K.K.K.K.K.K.p = N w.i.V K.K.K.K.K.K.K.K.K.K.K.K.K.K.K.K.K.K.K.K.",
"K.K.K.K.K.K.K.K.K.K.K.K.K.K.K.K.K.K.K.K.K.K.K.K.K.K.K.K.K.K.K.K.K.K.K.K.7 - v l.t.D K.K.K.K.K.K.K.K.K.K.K.K.K.K.K.K.K.K.",
"K.K.K.K.K.K.K.K.K.K.K.K.K.K.K.K.K.K.K.K.K.K.K.K.K.K.K.K.K.K.K.K.K.K.K.K.K.K.7 6 B F.8.K K.K.K.K.K.K.K.K.K.K.K.K.K.K.K.K.",
"K.K.K.K.K.K.K.K.K.K.K.K.K.K.K.K.K.K.K.K.K.K.K.K.K.K.K.K.K.K.K.K.K.K.K.K.K.K.K.K.= 8 e.e._ ` K.K.K.K.K.K.K.K.K.K.K.K.K.K.",
"K.K.K.K.K.K.K.K.K.K.K.K.K.K.K.K.K.K.K.K.K.K.K.K.K.K.K.K.K.K.K.K.K.K.K.K.K.K.K.K.K.Q $ x $.d.^ X.K.K.K.K.K.K.K.K.K.K.K.K.",
"K.K.K.K.K.K.K.K.K.K.K.K.K.K.K.K.K.K.K.K.K.K.K.K.K.K.K.K.K.K.K.K.K.K.K.K.K.K.K.K.K.K.K.d ; i w v.| ! K.K.K.K.K.K.K.K.K.K.",
"K.K.K.K.K.K.K.K.K.K.K.K.K.K.K.K.K.K.K.K.K.K.K.K.K.K.K.K.K.K.K.K.K.K.K.K.K.K.K.K.K.K.K.K.K.+ = q G m.l R K.K.K.K.K.K.K.K.",
"K.K.K.K.K.K.K.K.K.K.K.K.K.K.K.K.K.K.K.K.K.K.K.K.K.K.K.K.K.K.K.K.K.K.K.K.K.K.K.K.K.K.K.K.K.K.5 # + 0 %.G.j Y K.K.K.K.K.K.",
"K.K.K.K.K.K.K.K.K.K.K.K.K.K.K.K.K.K.K.K.K.K.K.K.K.K.K.K.K.K.K.K.K.K.K.K.K.K.K.K.K.K.K.K.K.e L b Z o @ 9 %.g.j T K.K.K.K.",
"K.K.K.K.K.K.K.K.K.K.K.K.K.K.K.K.K.K.K.K.K.K.K.K.K.K.K.K.K.K.K.K.K.K.K.K.K.K.K.K.K.K.K.K.K.i 1 : g a r # @ 9 ..d.4 2 K.K.",
"K.K.K.K.K.K.K.K.K.K.K.K.K.K.K.K.K.K.K.K.K.K.K.K.K.K.K.K.K.K.K.K.K.K.K.K.K.K.K.K.K.K.K.K.,...z O U _ u 5 a # = 9 L > i K.",
"K.K.K.K.K.K.K.K.K.K.K.K.K.K.K.K.K.K.K.K.K.K.K.K.K.K.K.K.K.K.K.K.K.K.K.K.K.K.K.K.K.K.K.K.V , g i 0 H ^ . b 5 > . # , 9 4 ",
"K.K.K.K.K.K.K.K.K.K.K.K.K.K.K.K.K.K.K.K.K.K.K.K.K.K.K.K.K.K.K.K.K.K.K.K.K.K.K.K.K.K.K.d 3 J O.: # g C o X A @.K.  7 & 7 ",
"K.K.K.K.K.K.K.K.K.K.K.K.K.K.K.K.K.K.K.K.K.K.K.K.K.K.K.K.K.K.K.K.K.K.K.K.K.K.K.K.K.K...) # & 9 o % x ) X 7 w K.K.K.K.K.K.",
"K.K.K.K.K.K.K.K.K.K.K.K.K.K.K.K.K.K.K.K.K.K.K.K.K.K.K.K.K.K.K.K.K.K.K.K.K.K.K.K.K.K.r # K X u 4 a m , w w K.K.K.K.K.K.K.",
"K.K.K.K.K.K.K.K.K.K.K.K.K.K.K.K.K.K.K.K.K.K.K.K.K.K.K.K.K.K.K.K.K.K.K.K.K.K.K.K.K.K.s , ` ] m : I #.J 1.K.K.K.K.K.K.K.K.",
"K.K.K.K.K.K.K.K.K.K.K.K.K.K.K.K.K.K.K.K.K.K.K.K.K.K.K.K.K.K.K.K.K.K.K.K.K.K.K.K.K.K.K.K.A ) ..: u k & 7 K.K.K.K.K.K.K.K.",
"K.K.K.K.K.K.K.K.K.K.K.K.K.K.K.K.K.K.K.K.K.K.K.K.K.K.K.K.K.K.K.K.K.K.K.K.K.K.K.K.K.K.K.K.K.K.K.X.*.* 7 p K.K.K.K.K.K.K.K.",
"K.K.K.K.K.K.K.K.K.K.K.K.K.K.K.K.K.K.K.K.K.K.K.K.K.K.K.K.K.K.K.K.K.K.K.K.K.K.K.K.K.K.K.K.K.K.K.K.V b r K.K.K.K.K.K.K.K.K.",
"K.K.K.K.K.K.K.K.K.K.K.K.K.K.K.K.K.K.K.K.K.K.K.K.K.K.K.K.K.K.K.K.K.K.K.K.K.K.K.K.K.K.K.K.K.K.K.K.K.J H K.K.K.K.K.K.K.K.K."
};
