/* XPM */
static char *_3be8129186e4bfaef639775326eaa87KPUEvZxqaRlbJHAq[] = {
/* columns rows colors chars-per-pixel */
"40 60 131 2 ",
"   c None",
".  c #161C26",
"X  c #181D25",
"o  c #191F2B",
"O  c #1B222E",
"+  c #1E2533",
"@  c #202736",
"#  c #282730",
"$  c #202836",
"%  c #232B3C",
"&  c #731119",
"*  c #4E3635",
"=  c #41363C",
"-  c #4C383A",
";  c #5C3B37",
":  c #503C3E",
">  c #252F40",
",  c #273142",
"<  c #293345",
"1  c #2C364A",
"2  c #2E394E",
"3  c #323847",
"4  c #383F4E",
"5  c #323C54",
"6  c #364052",
"7  c #3E4657",
"8  c #35435E",
"9  c #434A5C",
"0  c #434E64",
"q  c #484D61",
"w  c #4E5564",
"e  c #4D556A",
"r  c #525A6E",
"t  c #565D71",
"y  c #5A6173",
"u  c #5D677D",
"i  c #63697B",
"p  c #686F7F",
"a  c #865345",
"s  c #965848",
"d  c #976253",
"f  c #9C6453",
"g  c #BC6D55",
"h  c #A77665",
"j  c #C88066",
"k  c #C2806D",
"l  c #CA846B",
"z  c #636C84",
"x  c #6C7284",
"c  c #6A728D",
"v  c #757B8E",
"b  c #787F8F",
"n  c #727995",
"m  c #717C98",
"M  c #75809E",
"N  c #7C859E",
"B  c #7D86A1",
"V  c #868C9E",
"C  c #858DA5",
"Z  c #848EAA",
"A  c #8B90A1",
"S  c #8A93AE",
"D  c #9197AA",
"F  c #989CAB",
"G  c #8691B0",
"H  c #8E97B5",
"J  c #959CB5",
"K  c #949DBA",
"L  c #96A0BD",
"P  c #9AA2BF",
"I  c #A3AABB",
"U  c #DDAA93",
"Y  c #E0B49D",
"T  c #9DA5C3",
"R  c #A0A7C5",
"E  c #A3AAC5",
"W  c #A5ACC9",
"Q  c #ACB3C7",
"!  c #ABB2CE",
"~  c #B4B8C7",
"^  c #B3B9CC",
"/  c #B8BCCC",
"(  c #AEB5D0",
")  c #AFB8D3",
"_  c #B4BBD5",
"`  c #B9BFD7",
"'  c #BBC2D5",
"]  c #BCC3DA",
"[  c #C0C6DE",
"{  c #C4C9DE",
"}  c #C5CBE1",
"|  c #C9CFE4",
" . c #CBD1E6",
".. c #CDD3E8",
"X. c #D5D8E7",
"o. c #D1D6E9",
"O. c #D5DAEB",
"+. c #D7DBEC",
"@. c #D7DAED",
"#. c #D7DCEC",
"$. c #D3D8EA",
"%. c #D8DBEC",
"&. c #D8DCED",
"*. c #D8DDED",
"=. c #D9DEEE",
"-. c #DADEEE",
";. c #DADFEE",
":. c #DBDFEE",
">. c #DBDFEF",
",. c #DCDFEF",
"<. c #DADDF0",
"1. c #DCE0EF",
"2. c #DCE0F0",
"3. c #DDE0F0",
"4. c #DDE0F1",
"5. c #DEE1F1",
"6. c #DEE1F2",
"7. c #DFE1F2",
"8. c #DFE2F2",
"9. c #E0E2F2",
"0. c #E0E3F2",
"q. c #E1E4F3",
"w. c #E2E5F4",
"e. c #E3E5F4",
"r. c #E2E5F5",
"t. c #E3E6F5",
"y. c #E3E6F6",
"u. c #E4E7F6",
"i. c #E5E7F6",
"p. c #E5E8F7",
"a. c #E6E9F7",
/* pixels */
"                                                                                ",
"                                                                                ",
"                                                                                ",
"              W u }                                                             ",
"              0 1 6                                                             ",
"                < % _                                                           ",
"                % % T                                                           ",
"              + $ + G                                                           ",
"            5 + + $ H                                                           ",
"          5 , $ X $                                                             ",
"          < % + O                                                               ",
"          % + O %                                                               ",
"          + + + % +                                                             ",
"          + + %   O                                                             ",
"            , O   %                                                             ",
"                    O         $ O %                                             ",
"                    O       + % + + ,                                           ",
"                    %             + + % + +                                     ",
"                      o                 < < % +                                 ",
"                    > +                   < 5 2 %                               ",
"                  + + % O     5             e                                   ",
"                  +       1 1 , 2           A                                   ",
"                + %     % = 1 7 1           J                                   ",
"              + % @   @ - f % % :         E J                                   ",
"            + % <     + l U Y h d +       [                                     ",
"              c       + j k & U a + + + ^ !                                     ",
"              K       + * ; s g # x v ]  .                                      ",
"              ^     O v M I p V ^ o.o.o.o.                                      ",
"              ] 3 O y } o.^ O I O.#.=.7.7.                                      ",
"              ] ..{ o.X.X.' 1.1.7.7.q.r.u.O.                                    ",
"                X.p O.=.1.1.7.q.r.u.p.p.p.u.                                    ",
"                %.| { q.q.r.p.p.p.p.p.u.u.r.0.                                  ",
"                 .X.w e.p.p.p.p.i.i.i.i.7.9.0.<.                                ",
"                  F % ~ p.p.i.i.C 7.7.7.<.7.<.,.$.                              ",
"                  O.~ u.u.q.q.e.> @ 9 / <.<.&.&.O.}                             ",
"                    r.r.q.0.0.x % @ @ @ w &.$.o.o.o.                            ",
"                    7.7.1.=.=.% @ @ @ + + ..........|                           ",
"                     .O.O.O.o.V @ z r Q | | | } } | } _                         ",
"                    { o..... .| } } O D | } } } { } [ [                         ",
"                    } | | } } } } v z K ` [ } ] [ ] [ ]                         ",
"                    { { { ] [ ] } ] ` ] ` ] ] ] ] ] ' ` _                       ",
"                    ] ] ] ] ] ] ` ` ` ` ` ` ` ` _ _ _ ` _                       ",
"                  W ` ` _ _ _ ) ) ) ) ) ) ) ) ) _ ) _ ) _                       ",
"                  ( ! ! ! ! ! ! ! ( ! ! ! ! ! ! ! ( 9 E W                       ",
"                  T R E T R E E W W W R W W W W W o @ t                         ",
"              % Z Z S G H K K T L T T T T T E R T + . S                         ",
"            + 4 e                 B G K K L K K t B T Z                         ",
"          $ $ O                         m Z Z Z t t B                           ",
"          + < %                             c q c n                             ",
"        + % $                                 r z                               ",
"        < < %                                 O O $                             ",
"        < 2 ,                                 < , ,                             ",
"        1 @                                   O @                               ",
"                                              + $ +                             ",
"                                              + % %                             ",
"                                              % 2 2 %                           ",
"                                              + < 2 %                           ",
"                                                  1                             ",
"                                                                                ",
"                                                                                "
};
