/* XPM */
static char *d1606a385ead4375da8e56580d15cb52N4OP51XpMN6mpPqD[] = {
/* columns rows colors chars-per-pixel */
"100 65 208 2 ",
"   c None",
".  c #490403",
"X  c #550201",
"o  c #5B0101",
"O  c #5F0A0A",
"+  c #640101",
"@  c #6B0000",
"#  c #630C0C",
"$  c #6D0C0B",
"%  c #730000",
"&  c #7B0101",
"*  c #760C0C",
"=  c #7A0B0B",
"-  c #790806",
";  c #700F10",
":  c #6A1516",
">  c #7D1213",
",  c #7B1B1E",
"<  c #7E2225",
"1  c #7A282B",
"2  c #79363A",
"3  c #6A2325",
"4  c #7E545B",
"5  c #6A4246",
"6  c #755C62",
"7  c #830101",
"8  c #8C0101",
"9  c #840C0B",
"0  c #8B0D0D",
"q  c #920101",
"w  c #9A0101",
"e  c #9B0A0A",
"r  c #88110E",
"t  c #9F120D",
"y  c #831111",
"u  c #8B1415",
"i  c #831618",
"p  c #891719",
"a  c #851919",
"s  c #8B191A",
"d  c #871914",
"f  c #991A16",
"g  c #A10000",
"h  c #A20C0C",
"j  c #A21617",
"k  c #91221C",
"l  c #892224",
"z  c #85292D",
"x  c #862526",
"c  c #9A292B",
"v  c #982525",
"b  c #97342C",
"n  c #8E2F33",
"m  c #8D3235",
"M  c #853B3E",
"N  c #803539",
"B  c #953336",
"V  c #97393A",
"C  c #A62221",
"Z  c #A72924",
"A  c #A63529",
"S  c #A33C33",
"D  c #9C4235",
"F  c #A84737",
"G  c #883D41",
"H  c #963F45",
"J  c #AB3F42",
"K  c #8C4146",
"L  c #87464B",
"P  c #9B454A",
"I  c #8D4D54",
"U  c #9E4E54",
"Y  c #87545A",
"T  c #92555A",
"R  c #9E555A",
"E  c #9C585E",
"W  c #A54747",
"Q  c #B04347",
"!  c #B14C41",
"~  c #B45B47",
"^  c #A84E54",
"/  c #B25E50",
"(  c #A3565B",
")  c #B66854",
"_  c #9C5A60",
"`  c #935C61",
"'  c #895F66",
"]  c #A55D62",
"[  c #AA5F65",
"{  c #B25D63",
"}  c #8A626A",
"|  c #94636A",
" . c #9B646B",
".. c #976167",
"X. c #936871",
"o. c #9A6A70",
"O. c #86717A",
"+. c #9C7279",
"@. c #AD6065",
"#. c #BA7361",
"$. c #A76B72",
"%. c #B46E75",
"&. c #A8747C",
"*. c #BC7379",
"=. c #C2745B",
"-. c #C17460",
";. c #C16A71",
":. c #C9836C",
">. c #C98066",
",. c #CA8974",
"<. c #D18F78",
"1. c #CE927C",
"2. c #D2947B",
"3. c #8B7781",
"4. c #8D7A83",
"5. c #917E87",
"6. c #9B7A83",
"7. c #937E88",
"8. c #9E7F8A",
"9. c #A17D86",
"0. c #A97C84",
"q. c #B77E85",
"w. c #C27C83",
"e. c #95828C",
"r. c #9B848D",
"t. c #998791",
"y. c #9C8A94",
"u. c #9E8F9A",
"i. c #968A96",
"p. c #A28790",
"a. c #A28D97",
"s. c #A18F99",
"d. c #AC8993",
"f. c #BB8D95",
"g. c #A4939D",
"h. c #AE939D",
"j. c #BA929B",
"k. c #BC838B",
"l. c #9D95A2",
"z. c #A796A0",
"x. c #AA96A1",
"c. c #A599A5",
"v. c #AA9BA5",
"b. c #AD9EA8",
"n. c #A59DAA",
"m. c #B79BA5",
"M. c #AEA1AB",
"N. c #B2A3AD",
"B. c #BDA1AC",
"V. c #AAA4B1",
"C. c #AEA9B7",
"Z. c #B5A6B1",
"A. c #BFA7B2",
"S. c #B5A9B4",
"D. c #B9AAB7",
"F. c #B3ACB9",
"G. c #BAADBA",
"H. c #B6B0BE",
"J. c #BCB1BE",
"K. c #C78B94",
"L. c #CE919B",
"P. c #D79C83",
"I. c #D9A38D",
"U. c #E0B39C",
"Y. c #C79BA5",
"T. c #C3A3AE",
"R. c #CAA7B1",
"E. c #C5A9B4",
"W. c #C2AFBB",
"Q. c #C4A6B1",
"!. c #D0A7B2",
"~. c #C4B1BE",
"^. c #CCB2BD",
"/. c #D6B1BC",
"(. c #B7B6C4",
"). c #BDB4C1",
"_. c #BEB9C6",
"`. c #BEBCCB",
"'. c #C0B5C2",
"]. c #C3B9C5",
"[. c #C5BCCA",
"{. c #CABCC9",
"}. c #CBB7C3",
"|. c #D4BAC6",
" X c #C7C1CE",
".X c #D5C2CF",
"XX c #C6C2D1",
"oX c #CAC5D3",
"OX c #CCC8D7",
"+X c #CECBD9",
"@X c #D3C6D2",
"#X c #D5C9D6",
"$X c #D1CDDC",
"%X c #DCCFDD",
"&X c #DCCAD7",
"*X c #D3D0DF",
"=X c #DAD0DD",
"-X c #D5D4E2",
";X c #D8D6E4",
":X c #D9D9E6",
">X c #DCDCEA",
",X c #D7DAE7",
"<X c #E1DCEA",
"1X c #DFE1EF",
"2X c #DFE2F0",
"3X c #E2E4F3",
"4X c #E5E8F7",
"5X c #E6EAF9",
/* pixels */
"                                                                                                                                                                                                        ",
"                                                                                                                                                                                                        ",
"                                                                                                                                                                                                        ",
"                                                                                        8                                                                                                               ",
"                                                                                    8 w w                                                                                                               ",
"                                                                                  7 w g w w                                                                                                             ",
"                                                                              y k f w g g q                                                                                   G.'.W.                    ",
"                                                                            d ~ 2.I.! w w 8                                                                             Y T ^ W J W ^ @.&.j.W.          ",
"                                                                          - F <.U.<.Z 8 A /                                                                           Y < - 7 8 q q 8 7 & R W.          ",
"                                                                        7 8 ~ 2.I.b q g Z <.                                                                            % % 7 7 8 q q 8 P B.            ",
"                                                  oXA.i               7 q e F <.2.D 7 w Z :.                                                                          & & 7 7 8 8 q e ^ B.              ",
"                                              oX+X+X{.B & & &         8 w e F >.P.#.- k -.)                                                                     7 7 8 q 9 & & 7 8 c %.                  ",
"                                          XXOXOXXXoX-Xm.l & & & &     q w w Z =.2.2.) 1.>.b                                                             8 8 8 8 8         2 z m (                       ",
"                                        oXOX[._.  oX-X-X~.R l > a K G 8 w w r / W V ,.>.F 8                                                     7 7 7 7 8 q                                             ",
"                                      XXXX_.      -X-XY.#X-X{.E.~.[.8.9 8 8 7 F F b ~ A q                                           & & & & & & & 7                                                     ",
"                          + %       ).(.        +X:XE.[ @X:X-X*X$XoX(.X.x i , b A Z t q q                                         + @ + @ % &                                                           ",
"                            % 8 u 6.n.          :X@Xq.%.#X,X;X;X-X$XoX(.V.s.u.I 7 8 w q                                     % % @ + @ + + @                                                             ",
"                            @ 7 q =             >XR.|.k.%X>X>X>X:X-X-X$XoXXX`.F.| z x z                             @ @ @ @ % & @ o % @ @                                                               ",
"                            + & 8 7 @         -X1X<X>X^.;X>X1X>X>X:X:X:X-X*X$X+X[.F.F.Z.m & %               + @ @ @ % & &     + o % 7 &                                                                 ",
"                            + % 8 7 @ o       >XY.w.|.;X1X1X1X1X1X1X>X>X:X:X;X;X-X*X$X$X~.R a & & & % % @ + @ % & &           + % %                                                                     ",
"                              @ 7 7 @ o       :XQ j j ;.3X3X3X3X1X1X1X1X>X1X>X>X>X>X:X-X@XT.] y % @ @ @ & a m m             + % @                                                                       ",
"                              @ & 7 @ o       <XQ h j K.4X3X3X3X3X3X3X3X4X4X3X>X#XR.q.U z * @ @ % & a H &.x.F.F.F.F.      + % & @                                                                       ",
"                              + % & @       >X4Xw.j ;.<X4X4X4X4X5X4X4X<X@XY.%.P l * @ @ @ & & u B I p.M.C.(.).)._.).G.M.2 % 7 & @                                                                       ",
"                                % & @       1X4X%X!.4X5X5X5X3X%X/.K.{ V u - @ @ @ @ % 7 0 B $.v.              F.F.F.V.c.N & 8 & @                                                                       ",
"                                @ & +       3X4X4X4X4X|.L.;.Q C 0 & @ + @ @ @ & & 9 l _ h._.XX(.                          8 8 % +                                                                       ",
"                                @ % @ +     3X4X4X4X=XZ 8 & % @ @ @ @ % & 7 7 u P 8.Z.[.OX-X+X                            7 7 & @                                                                       ",
"                                @ & % @     3X4X4X1XA.> % @ @ @ % & 7 8 0 m o.z.(.`.OX-X,X2X-X                                % @                                                                       ",
"                                % 7 & % @ < Q.}.0.L : + @ % & 7 8 7 l I 7.V.(.XX+X-X>X1X2X2X                                                                                                            ",
"                                  7 7 % + @ ; : : M ' 4 7 8 8 & < X.t.Y G  .[.,X>X1X2X3X3X3X                                                                                                            ",
"                                  & 7 % o $ M 8.V.F.V.i.L > + O : | T > 9 0 [ >X3X2X2X3X2X>X                                                                                                            ",
"                              % % % & @ @ + X.(.(.`.(.C.l.2 O $ * i s u 0 0 c &X3X1X3X1X1X>X                                                                                                            ",
"                      7 & & % &     %     K d.oX+X-X-XOX_.G * 9 9 9 0 0 e 0 c #X1X1X>X>X1X>X-X                                                                                                          ",
"                7 7 & & &                 XX*X:X>X>X>X>X;X$.9 0 0 0 0 0 0 0 W ;X>X>X>X>X>X>X-X                                                                                                          ",
"          7 7 7 &                         +X>X>X>X>X>X>X>X^.l 0 9 0 0 0 9 u j.>X:X>X>X>X>X:X-X                                                                                                          ",
"                                          *X>X>X>X>X>X;X>X>Xf.d 9 0 9 9 9 ] =X:X;X:X:X:X;X;X;X$X                                                                                                        ",
"                                          +X:X:X;X;X;X>X;X;X:Xf.l 9 9 9 P @X:X:X;X;X;X;X;X;X;X*X                                                                                                        ",
"                                          +X:X:X;X:X;X,X;X;X;X:XR.V 9 B {.;X-X-X-X;X-X-X-X-X-X*X+X                                                                                                      ",
"                                          +X-X;X;X=X-X-X;X*X*X-X,X{.( j.-X*X*X*X*X$X*X$X*X*X$X$X+X                                                                                                      ",
"                                          +X*X*X*X*X*X*X*X*X*X$X*X*XoX$X$X$X$X$X$X$X$X$X$X$X+X$X$XXX                                                                                                    ",
"                                          +X$X*X$X$X$X$X$X$X$X+X$X+X+X#X+X+X$X$X$XOX+XOX+X+X+X#X+XoX                                                                                                    ",
"                                          OX+X+X+X+X+X#XOX+X+X+X+XOXoX+X+X+XoX+XoXoXoX#XOXoXOXoXoXoX[.                                                                                                  ",
"                                          OX+XoXOXOXoXoXOXoXoXoXoXoXoXoXoXoXoXoXoXoXoXoXoXoXXXoXoXXX X                                                                                                  ",
"                                        _.oX XoXoXoXoXoX XoX XoXoXXXXX XXX XXXXX X X X XXX X X X X X X_.                                                                                                ",
"                                        _. X X X X X X X X X X X{. X X X X[. X{. X X[. X X[.{.[.[.[.[.].                                                                                                ",
"                                        '.[.[.[. X]. X].]. X]. X[.[.[.[.].[.].[.].].[.[.].].].[.].[.].].G.                                                                                              ",
"                                      Z.J.'.].].].].].].].].].].].].].].].].].].].].'.].].].'.'.'.'.'.].J.                                                                                              ",
"                                      S.J.J.'.'.'.'.'._.~._.'.].'.'.'.'.'.).'.'.'.'.'.).'.).'.'.'.'.'.'.J.                                                                                              ",
"                                      S.D.G.G.J.J.).J.~.J.J.J.J.J.).J.'.~.).J.).'.J.).~.J.~.).).J.G.).J.G.                                                                                              ",
"                                    M.N.Z.F.S.G.G.G.G.G.J.D.J.J.G.J.J.J.J.J.G.J.J.G.G.G.G.G.G.S.$.P d.D.D.M.                                                                                            ",
"                                    M.M.M.N.Z.Z.S.S.D.G.D.D.D.D.D.D.S.D.D.D.D.D.D.G.D.D.D.D.S.E y 9 a E M.M.                                                                                            ",
"                                  g.v.M.M.M.M.N.N.Z.S.S.A.S.S.Z.S.S.Z.S.Z.S.S.S.S.S.S.Z.S.Z.h.l - = = = o.M.                                                                                            ",
"                                t.l.g.z.v.v.M.M.N.N.N.N.Z.Z.Z.Z.Z.Z.A.Z.Z.Z.Z.N.N.N.N.N.N.M.b...M ` I M 6.g.                                                                                            ",
"                                y.g.g.g.g.z.x.v.b.b.M.M.N.N.M.N.B.N.N.N.N.N.M.M.N.M.M.v.b.v.v.g.r.h.p.+.a.y.                                                                                            ",
"                              e.t.y.y.s.g.g.g.g.z.x.b.b.b.M.M.M.M.M.M.M.b.M.v.v.v.v.v.h.x.g.z.p...r.T ..a.r.                                                                                            ",
"                            4.e.t.t.t.y.y.g.g.g.g.g.g.x.h.b.x.v.v.v.h.M.v.x.v.x.z.g.g.g.g.g.g.s...L T r.y.e.                                                                                            ",
"                      X . 5 O.4.4.4.5.4.e.4.4.e.e.e.e.e.e.e.t.t.t.t.t.r.t.y.t.y.y.y.s.y.y.y.t.y...I e.e.4.O.                                                                                            ",
"                    o @ - > 3                                                         3.3.4.3.3.O.O.' Y 6 1 7 7                                                                                         ",
"                    o + % @ X                                                                       : # # % @ + @ @ % % & 7 7 7 -                                                                       ",
"                    @ 9 q q -                                                                       X o X o X o + + + + % & & @ @ % &                                                                   ",
"                    @ % 7 h e 7                                                                       o X X X X X X o o o o o o                                                                         ",
"                    X X + 9 & @                                                                                         X                                                                               ",
"                      . . o X X                                                                                                                                                                         ",
"                                                                                                                                                                                                        ",
"                                                                                                                                                                                                        ",
"                                                                                                                                                                                                        "
};
