/* XPM */
static char *_1f5670639f043bdc9cf57b244205045WElyCuJGApl1wgBO[] = {
/* columns rows colors chars-per-pixel */
"75 72 239 2 ",
"   c None",
".  c #1B1A0F",
"X  c #272718",
"o  c #2E3219",
"O  c #2D3217",
"+  c #343A1D",
"@  c #34351B",
"#  c #3A281C",
"$  c #393923",
"%  c #362D22",
"&  c #3E1B14",
"*  c #551914",
"=  c #6A1A15",
"-  c #7D1D19",
";  c #771A17",
":  c #4A251B",
">  c #59251C",
",  c #503A1C",
"<  c #65261D",
"1  c #73221C",
"2  c #7C221D",
"3  c #4B2D21",
"4  c #473A27",
"5  c #563928",
"6  c #552C21",
"7  c #792821",
"8  c #653827",
"9  c #713227",
"0  c #3C471E",
"q  c #3C4424",
"w  c #3F4725",
"e  c #424B25",
"r  c #444C29",
"t  c #4A4D2C",
"y  c #484525",
"u  c #57452D",
"i  c #4B532C",
"p  c #4A5629",
"a  c #54592D",
"s  c #5A4832",
"d  c #4D5631",
"f  c #535D32",
"g  c #5A5B34",
"h  c #575736",
"j  c #4E4433",
"k  c #674D33",
"l  c #665837",
"z  c #755A35",
"x  c #68512E",
"c  c #57662C",
"v  c #5A6635",
"b  c #5F7034",
"n  c #66673A",
"m  c #76663B",
"M  c #6A743A",
"N  c #6F6F35",
"B  c #685942",
"V  c #686B44",
"C  c #766B44",
"Z  c #6D7445",
"A  c #767647",
"S  c #7A7A55",
"D  c #67674D",
"F  c #8D1A16",
"G  c #841D1A",
"H  c #8C1E1A",
"J  c #851815",
"K  c #941D1A",
"L  c #9A1E1B",
"P  c #931A16",
"I  c #84211E",
"U  c #8C211E",
"Y  c #93221E",
"T  c #9B221E",
"R  c #A3221E",
"E  c #AB231E",
"W  c #8D2522",
"Q  c #8C2A25",
"!  c #862924",
"~  c #942522",
"^  c #9C2522",
"/  c #942925",
"(  c #9C2926",
")  c #942D29",
"_  c #9C2C29",
"`  c #8A342C",
"'  c #98352B",
"]  c #A32622",
"[  c #AB2622",
"{  c #A42925",
"}  c #AC2925",
"|  c #A42D2A",
" . c #AC2D2A",
".. c #B32622",
"X. c #B42A25",
"o. c #B92A25",
"O. c #B32E2A",
"+. c #BA2E2A",
"@. c #B92722",
"#. c #A4312D",
"$. c #AC312D",
"%. c #A8392F",
"&. c #B4312D",
"*. c #BA312E",
"=. c #AD3431",
"-. c #A83732",
";. c #B43531",
":. c #B83633",
">. c #A01F1B",
",. c #994634",
"<. c #98573B",
"1. c #8F4E32",
"2. c #A64A3A",
"3. c #A24B31",
"4. c #886739",
"5. c #9A663B",
"6. c #917636",
"7. c #A86D3E",
"8. c #975F47",
"9. c #A65844",
"0. c #A64D40",
"q. c #976C45",
"w. c #88764A",
"e. c #987948",
"r. c #8A7B56",
"t. c #987D53",
"y. c #876D43",
"u. c #A96748",
"i. c #A47A49",
"p. c #A97A57",
"a. c #B57859",
"s. c #B46B50",
"d. c #957D62",
"f. c #F97E61",
"g. c #6E813A",
"h. c #7A8449",
"j. c #7E8259",
"k. c #B89634",
"l. c #E5C433",
"z. c #898558",
"x. c #968456",
"c. c #90894E",
"v. c #A4824B",
"b. c #AB854C",
"n. c #A48452",
"m. c #AB8A54",
"M. c #AB8D5C",
"N. c #A88559",
"B. c #B28B53",
"V. c #B4895B",
"C. c #AA915A",
"Z. c #B5945D",
"A. c #B9955A",
"S. c #B4904B",
"D. c #9A8B65",
"F. c #929169",
"G. c #AB8B63",
"H. c #B78865",
"J. c #A99265",
"K. c #B59563",
"L. c #BB9B64",
"P. c #B3956B",
"I. c #B59A6D",
"U. c #BC9D6B",
"Y. c #B99466",
"T. c #AB9773",
"R. c #BB9E73",
"E. c #B69974",
"W. c #AA8C71",
"Q. c #BEA16D",
"!. c #BDA274",
"~. c #BDA57C",
"^. c #B8A67A",
"/. c #ADA47D",
"(. c #A3A463",
"). c #C49759",
"_. c #C8A15C",
"`. c #C29C64",
"'. c #C39D6C",
"]. c #C69867",
"[. c #C59C74",
"{. c #C68C6B",
"}. c #EF8971",
"|. c #C3A36C",
" X c #CAA468",
".X c #D2AB6B",
"XX c #C3A473",
"oX c #CAA474",
"OX c #C6A974",
"+X c #CBAB74",
"@X c #C2A67A",
"#X c #CAA57B",
"$X c #C5AA7C",
"%X c #CBAD7C",
"&X c #D1AC7C",
"*X c #D3A874",
"=X c #CEB17E",
"-X c #D4B37B",
";X c #D7B478",
":X c #D2B26C",
">X c #EBCD4C",
",X c #D6B73B",
"<X c #BDA983",
"1X c #C5AC83",
"2X c #CBAD82",
"3X c #C7A886",
"4X c #D3AD84",
"5X c #CCB284",
"6X c #CCB48B",
"7X c #CAB48B",
"8X c #D3B584",
"9X c #D2B48A",
"0X c #D4BA8C",
"qX c #DABC8C",
"wX c #D8B887",
"eX c #CEB994",
"rX c #CCB895",
"tX c #D4BC93",
"yX c #D6BC96",
"uX c #C3AE93",
"iX c #F5AB94",
"pX c #FAB9A4",
"aX c #DEAA91",
"sX c #DDC08D",
"dX c #DAC295",
"fX c #D6C09A",
"gX c #DBC49B",
"hX c #DDC69B",
"jX c #E2C597",
"kX c #E1C38B",
"lX c #DBC6A2",
"zX c #DEC9A3",
"xX c #DCC9A7",
"cX c #E2CBA4",
"vX c #E2CDAA",
"bX c #EFC2A8",
"nX c #E6D3B5",
"mX c #F1CBB1",
"MX c #EDDEC3",
/* pixels */
"                                                            z.F.  yXnXnXaX*X4XwXnXyXbX  qX                                                            ",
"                                                F.z.b v b M V V N.'.4X4X4X].).*X*X XwXkX;X:X;XjX                                                      ",
"                                        D z.(.v v b f t r w V T.I.Z.yX9X9XK.1.5.5.5.].qX-X).;XsX;XdXjXjX                                              ",
"                                      M f Z r.d r d d d i h T.1X!.L.6X9X4XQ.5.4.q.i.H.yXoXA.gXgX-X+X-XwXcXjXjX                                        ",
"                                  z.h.C m C t.A g n f g l z.<XU.J.q.Y.4X8Xm.4.4.z 4.V.lX2XB.dXxX0X=XzX=XgX8X8XjXkX                                    ",
"                              S v m v.x.w.l C g y s x y.t.I.2X1XP.e.K.m.I.I.p.4.w.G.R.#X$Xm.Z.%X^.Q.1XXXA.OX=XXX-XsXvX                                ",
"                            <XS c N x.D.h d d $ @ w r j r.K.Z.#XU.5X5XN.3X3XrXR.gXlX8X0XlX|.8XtXgXlX6X6XL.+XlXdXgXdXMXMXMX                            ",
"                          ;X XS f C G.D.t t w + $ q q @ s C.|.A.).oXOXv.[.[.fX'.lXfX6XdX0X|.0XzXdXdX0XfXQ.dXxXlX5XdXhXhXdX!.                          ",
"                        kX_.A.J.V C.J.<Xz.f w o $ r $ y d t.V.b.B.b.i.v.3X3XaXL.tX0X8X8X9XL.OX+X XL.'.!.Z.hXlXvX5Xm.A.`.e.n Z                         ",
"                      dX XA.m.sX+XOX$X1X<Xg q $ + t t g x.3X6X9XtX8X8X#X4XyX3X'.dX0X0X5X8X*X4X#X`.[.'.].OX0XwXdXtXC.L.XXC.f c Z                       ",
"                    kX Xi.v.v.8X8XR.1X7XlXS + o $ n z t.E.uXrX9X[.[.[.{.H.a.{.s.{.[.*X#XoX*X4XoX4X4X[.].).wXqXqXtXm.v.Z.J.x.e.6.A.                    ",
"                    jXtX%X$X~.%XU.N.P.M.G.W.B h r.J.N.H.H.u.9.,.| $. .}  .! ) $.;.$.$.' %.s.a.{.].+X%X%X|.+X+X-X-X|.OX1X2X^.c.6.v. X                  ",
"                  mX&X9XgXvXzXlXtXR.rX3XN.G.uX<X3Xp.,./ H H J G Y R ~ ^ } U / | | E L F G L T | 2.{.yXyXwX+X+X-X9X9XgX9X9X2Xr.n v b.*X                ",
"                jXyX4X[.OX5XOX$XXXH.3X3XL.I.H.p.,.- - G I I ! W ^ ( ~ ~ ] H W ( / { ~ K H K K P P >.0.a.Y.U.Y.U.2X$X%XZ.2XeX!.w.e.H.).qX              ",
"              qX;XaX4X#X'.%X$XXXR.3X6X6XK.9.) - G F L ^ _ / ` Q _ | | _ { U W _ ) _ / / ! K ~ U H F P K ' p.Y.V.'.Y.|.b.@XyXtX3XW.z z 2XmX            ",
"              .X*XwXqXOX2X2X6X9X6XaX3XY.,.- J ; K T { { | _ ` ' ' %.#.| $.! W | ) ' Q ) 7 L ^ ^ T F ; H H ' a.6XtX%X].4.N.#XXXU.w.X X r.:X            ",
"            :X X+X+X+XK.`.].].#XoX#Xp.` U ; ; ; Y T {  .{ / ` Q | { { } | I U ( / ) ) _ I Y T ^ L K U ~ K J W a.pX~.A.v.i.i.i.i.z X X s b.*X          ",
"          ~.c.c.Q.%X0XfX9X].Y.-X.XV.,.F F ; - I / T ^ { { _ / / { R R [ ( - U _ / / ) / - K L R R T U 2 H K P ] a.@X%X8XOX|.A.B.y.% X B B. X          ",
"          F.g C OX0XtXlX5X=X%XwX%X<.H F F U U I Y T T R E R Y T L R E { ^ I / ~ / _ | _ U ] R R R ] / 2 W ~ L L G a.yXOX|.OXB.n.C $ % h e.`..X        ",
"          h.n J.+X6XeXtX9XOX=XwXa.I F F Y T U I T Y T T ] T I T R R [ R R W #._ {  .| ( W [ E E E L W 1 W ~ L T Y Q {.#X|.A.m.x.l % X # z B._.        ",
"      <X|.S.C.L.K.x.J.2X%XL.-X#X' - H T { Y U = = = * = = * = ^ } ( { [ [ U _ | | |  .] G ~ H G H G I = ! ) ~ T T U _ I.|.S.e.l . . . . y 5.S.:X      ",
"      (.(.S.L.Q.r.y C 3XOX%X:Xu.G ; Y R R ^ G > # # 3 5 3 % : /  .| { [ [ Y |  . .$. .T = > : > : & & & - _ { ] T ~ P ' B.A.v.k , z N N $ x 6.).      ",
"    z.Z M c.Q.=Xz.t S 7XdXdX-X' J - Y R E R U 6 u u 4 4 4 4 6 (  . .} E E Y $. . .$. .T < j s s 5 4 $ 5 ; ^ { ~ ( I H Y i.U.m.s 6.>Xl.>XC C m.A.      ",
"    S c p n (.dXuX<XrX6XdXsXN.I F H T ] E E ^ ; 7 7 2 2 I ! ! } ;.;.X.X.[ Y | } [  .O.] 1 8 5 8 6 3 3 6 2 ~ ^ ~ / G G Y <.K.v.s 6.>Xl.>Xy.B 7.)..X    ",
"    D f i g ~.dXfXlX0X0X8XwX<.F L ~ / { } E { U ^ [ [ E E ..~ }  .O.O.X.} H { [ } O.;. .! K ~ H K K I = W ~ ~ Y W 2 - H %.V.m.s 6.l.l.>XN x 6.7.].    ",
"    ~.w.n y.!.fX5X8X8X-XqXOX' P L ~ / { [ [ [ U { ] [ ....../ } E E X.@...U | ..O.&.;.=.! ] ] T E >.] - ~ ^ ] ~ W 1 G K ~ i.m.4 , S._.k., l i.i. X    ",
"  kX;XS.b.b.p.m.v.m.L.+XOXV.T T ] G / | { ..{ Q | [ [ ..X...~ { X...O.@.E H ] E $.;.:.O./  . .] ..[ [ - ^ | | ( ) ! W L K <.J.5 X % 4 4 4 m i.S.:X    ",
"  ;X].`.'.oXoX].b.K.sXwXwXs.T K L G / | [ ..{ Q | O.o.......~ } @...} X.@.K } X.+.+.;.=.!  . . .o.X...; ^  .{ { { W H L K 1.!.B X % % j 4 r.U.#XhX    ",
"   X X].#X#X[.].V.%XjXdX0X2.L P P ! ( } ....} Q $.O.X.X.....^  .+. .}  .o.K [ E X.+.:.=.W  . .X.o.+.O.G ^ }  . .} ~ ~ T L ' K.l X X X X X d.!.+XlX    ",
"   X].[.&X[.].].i.6XvXhX2X%.L K F / | } ..[ { W =.;.o...[ X.^  .o. .} } X.U { @.o.o.+.O./ O.} o.o.+.+.W ~ } X.[ E ] / Y P ' Y.D $ 4 4 4 j D.J.t.S     ",
"wX_.).).oXoXA.i.N.hXhXvX3X^ L P H /  .[ ....} Q O.O.......O._ &.&. . .} O.G | ..@.....X.^ X.} X.@.+.;.~ { } X.X...^ I Y T / V.E.M.J.J.T.t.<XM.w.h F.  ",
"  ;XwX.XB.A.B.b.@XqXdXvX{.Y P P H / { } ..@...~ } o.@......._  .O.{ }  .:.W |  .......} ^ @.O.o...o.*.~ | } X.@.X.{ U U T W p.@XY.E.P.W.y.N.N.w.V     ",
"  vXnXvXL.6XzXfXhX8XwXhX{.L K ~ W ( $.} @.@.[ ~ X...@.....X._  .{ I ~ { $.U _ / U H [ [ ^ o.X.X...o.+.~ [ O.....@.[ W G G / p.6X5X9XxX~.x.P.!.x.n A   ",
"  kXnXhXQ.sX0X9XzX0X;XsXs.L K K ~ ^ $.} ....../ X.@.@...@...) ^ 7 6 6 2 [ U W > # 3 G } ^ ..O.o.o...o.~ [ O...X.X.[ U G G Q q.oX0XtXfXfXI.2XI.V i A   ",
"  jXdXdXQ.dXdX0XdX5X;XwXu.K K K H ^  .......X.) O...o.X.@.} / U 8 l s < { H 1 3 j % < ] ~ o.O.o.X...@.H [ } ..X.+. .Y G U / i.#XxXzXfXfX!.$X^.g f Z   ",
"  kXQ.0X|.5X0X0X0X-X;XwX9.L L K ) #.=.O.X.X.../ } @.........~ H 9 5 4 1 ] ! ! 3 4 # 1 ] ~ o.+.o.X.o...G ^ o...X.O.O.~ H K Y u.9XlXtXzXnX7X!.#Xz.b j.F.",
"  Q.Z XXZ.+XtXzX8XOX+X+X0.L T ~ _ _ | O.O.X.X./ ..@.X.@.X.X./ ! > s 3 > / I 2 > 3 # = { U +.+.+. .*.o.G ] ......@.&.| T K T 5.+XhXdXyXrX^.P.1XXXF.h.  ",
"  (.A B.S.B.Z.Q.Q.tXqX-X9.T T ^ ^ W | ;.=.+.+.Q X.@.X.o.O.O.Q 7 5 : 3 5 = ; = u 3 # : Y W o.+.X. .O.o.G ] ..o.} X.{  .E T T 5.Y.2X+X2XR.M.^.$XU.Q.Q.  ",
"sXh.x.tX9X5XeXM.[.fXyX&X9.| K L ~ Q #.;.O.O.O.Q O.@.O.+.O.O.W 9 3 - = s = = 8 5 = = 5 = H O.+.X. .O...G { ..o...@.( $. .R T u.&XjXhXtX$XU.9X$X=XC.c.D.",
"-Xc.r.7X6XyXeXr.W.yXyX4X9.R K R ] W _ =.X.O.O.W  .X.X.+.O. .W 9 4 * > l > = 8 8 * 9 B 7 W X.+.O.&. .X.U [ @.o.o.X.U $.O.R Y 9.;XdXwXtXXX=XK.K.K.m 0 V ",
"&Xc.m J.1X5X@XA r.rXxXaXu.T L L { Q _ O...O.O.!  .&.+.*.$.&.W 7 8 3 5 8 I G 7 k 5 k 8 ~ Q  .o.O.&. .X.^ { @.@.o.O.T  .O.E P <..XqX).+X2X+XY.L.I.Z w V ",
".Xv.M t.J.^.1XN Z uXxX4X9.L R L ] W | ..} X...W  .&.*.O.-.&.! ~ _ ` ` ) | I ~ ! 7 7 W { W  .o.+.&. .O._ { ..@.X.O.(  .E R T 3.:XcX8X'.8X-XZ.XXQ.F.V Z ",
"x.l v n y.e.G.m b T.#X#X0.L L L ] U ^ } .. .O.Q  .&.:.O.=.=.! L [ E O. .$.W ~ ^ ^ } } { )  .;.+.&.O.X.{ { ..@...&._  . .E L 3.).qX4X`.U.XX~.U.Q.|.A.7X",
"V w p g s z t.c.n x.&XoX9.R ] L ] W ^ [ ....O.` &.&.;. . .$.) R @... .[ =.W _ | {  .}  ._  .+.+.O.&.o.{ { [ .... ._ } O.E >.3. X9X8X8X#XdXlXzXlXzX$X<X",
"A a p p p l x.Z.M D.eXeX0.^ ] ^ | ~ ^ ..O... .`  .$. . .$.$.~ ] @... . .+.W #.*.*.&.O.} ( X.+.;.O.:.+.^ ^ X.[ X.} (  . ...E '  XyXbXlXE.fXlXzXdX0X/.Z ",
"A a v p y v w.n.M z.~.tX9.L ] ^  .~ | } X.O.O.Q $.&. .| |  .! ~ ..} .. .+./ &.*.*.X.o...~ ..O.+. .:.+.^ ] } [ X.} _  .O.E E 3.).qXwXyX2XfXnXzXxXvX/.A ",
"h.C N n y v l y.M M.7XyX9.T ^ ] | ^ { .. .+.;.Q #. .| _ (  .I Y ..X.+.O.+._ ;.*.+.+.o.o.] X.*.O.$.;.*.R ] [ [ [  .|  .&.[ E 2.oX].'.XX8XfX=XwXzXvXtX~.",
"dX|.i.n u n a l Z Z.+X2X9.Y ^ | #.{ } [ O.+.;.! ] [ ] ^ ] ] - Y ..X.*.+.+.) =.;.*.X.o.o.{ ;.:.*.$.;.&.^ ^ [ ] [  .{ $.=.[ >.9.*X&X&X5X5X8XgXhXU.K.-XhX",
"^.I.C.V y a y t c.OX-XqX2.~ ^ ( ^ ~ { [  .&.$.! ^ [ ] / ] ] G ~ }  .X.O.+._ | +.X.X...O._ *.*.X.$.=.;.Q ^ ^ [ } $.} [ } ] T 9.9XqX4X2XOXtXcXcXL.S.:X  ",
"S r.E.v , p p p N.|.*XwX0.^ ~ ^ T W { X.$.=.| 7 ; = = = ; 2 = U [  . .O.:._ _ O.X...X.} / W W G 7 7 7 = / ^  .} ;.| ] { R R 0.2X*X*XoXM.J.dXhXA.L.;X  ",
"z.C x.f h.b b v T.6X0X0X2.L T T ~ U |  .;.-.#.> 4 j s u j u 5 - [  . . .*.)  ...+.X.X.{ 9 5 k k s 5 s 5 G ^ ] { O.{ ] } ] ] 2.*XwX*X#XS A @X8XQ.).qX  ",
"S l A n p c f v D.7XzXyX,.L K T ~ H  .&.;.=.-.9 5 k s 5 5 s 5 - [ O. .[ O.~ ] X.o.o.} _ 9 k C z k j k 6 H ^ ^ [ O.{ ( | ] L 3.oX+X'.[.w.n p.8XQ.A.+X  ",
"V h Z w q v f f D.7XlXyX8.T L T K W  .+.=. .=.7 ` Q ! 7 ! ` 7 H [ O.X. ...W ] ..+.o. .{ ! ` ` ` ` ! ! ; ~ [  .| ;._ / | [ L ,.4XsX=X5Xz.i n W.gXtXtXrX",
"V h A v O + d g N.+XtXdXu.T K ] ~ U X.O.;. .| ! [ *. . . .&.) / |  ... .O.Y { O.+. .$.| ) =.#.-.-.| } W ^ } | #.;.^ ~ { ^ L ,.*X8X=X7Xz.p v Z R.1Xr.j.",
"S t S v q X w d w.@X0XqX9.T K ] ^ T  .}  .} } ~ } +.+.+.+.*._ _ O.O. .| ;./ _  . .| | #._ =.-.$.#.$.O./ _ [ ] =.=.|  .{ R L ,.oX-XOX1Xw.l y.N A w.g V ",
"j.v b v d X w w n N.+X&X<.Y L ] [ ~ H [ ..@.X.^ } +.*.:.O.;._ _ &.O.O.[ O.~ {  . .| | #.! $.$.$. .| O.~ ~ O.^ { | ^ ^ ] ] T 2.|.OXU.M.C N J.w.A C i v ",
"j.h.c w w w O + l e.[.&X<.U T ^ ^ L G ] [ [ [ Y E X.*.*.O.*.| _ +.O.X. .$.Y  .*.&.O.O. .( } &.*.O.O.;.) ^  .^ ] ] ^ ] ~ T L ,.'.U.J.B n M.^.n.N w.n Z ",
"j.g.p q + f O o n m.[.0Xq.; - - G W G K ~ ^ T W ^ } $.*.$.&._ W ] ^ ^ ^ / Y _ &.$.O.&.X./ #.$.=.-.2.%.) Q ^ I I U - G - G - 1.U.M.4.a 4.v.i.e.N x.J.  ",
"j.b q + o v + O h t.V.[.p.y.q.p.p.p.p.p.G.H.p.V.V.H.H.H.H.a.V.p.a.p.a.p.i.p.V.a.p.b.p.i.p.N.V.H.H.P.H.M.N.H.p.p.p.t.q.5.<.q.p.9X@XM N b.B.b.e.M M.wX  ",
"h.w w + O f O X d N w.I.1X~.~.uXeX7XrX6XyXgXlXgXfXlXlXlXxXcXfXdX0X0X8XsXqXdXdX=XdXhXwX=XtXdXcXyX8X0X8X=X$X$X6X6X1X$X#X'.K.!.U.5XG.n A v.v.m.c.M ].qX  ",
"h.q q O 0 p O q p c N D.1XI.T.<X<X~.7XrXeX7X5XeXeXyXeXfXfXfXfX0XeXsX8X0XqXtXtX8XdXsX0X8XdXtXtXtX5X5X+X#XXXXX$X1X@X#XU.U.U.I.Z.%Xv.g u z g z N A Y.#X  ",
"V q X . O 0 O c p w c c.P.e.e.G.E.^.^.^.^.I.I.!.!.!.@X~.@X^.!.!.!.!.!.!.!.@X@X|.!.!.!.!.@X~.~.$X$X^.R.^.E.R.I.I.E.I.Z.M.J.m.i. Xe.m p v p y f m ].*X  ",
"  f d w p O o c p i v x.Z.v.m.I.~.1X1X$XXX!.!.$X+X|.%X5X1X%X+X@X!.^.XX@X@X$X$X$X$X$X1X5X1X%X$X1X1X1X~.~.~.^.R.R.I.M.v.v.v.i.S.|.e.C v d y $ p 4.).kX  ",
"  h.b b g.c + p + w c r.L.Z.|.5XeXfXyXlXdXgXfXxXvXfXgXvXcXfXdXgXdX8XdXgXgXgXhXzXvXcXhXcXcXzXvXhXcXzXlXlXlXfX6X6X%XOXoX|.Z.A.L.OXw.V r e e + 4 n c.;X  ",
"F.h.d w f b w o O 0 0 m m.b.L.`.XX5XeXtXtX6XfXlXeXdXfXgXgX0X7XtX0XfX0X9XfXxXgXlXgXhXzXgXgXhXfXdXfXfX7XtX2X$X2X2X#XXX3X3X[.H.m.|.A M + 4 a + @ f m :X  ",
"F.h.b w q b w X . O . 0 l v.C.U.XXXX$X1X1X1X6X6X@X!.!.$X$X|.Q.Q.Q.!.Q.Q.!.XXXX5X5X=X%XXX%X8X=X=X5XOX+X$X$XXX$X#X[.[.#X3XR.H.n.E.C g X 4 a 4 y y s ].  ",
"  h.b q q b 0 . O + 0 e p 6.e.n.P.U.^.I.Q.^.$X^.!.I.L.Q.Q.L.U.Q.L.L.Q.K.L.U.Q.!.!.!.Q.I.XX$XXX$X@X!.Q.U.XXXXR.R.Y.Z.Y.E.W.p.i.J.V 3 3 9 s : y k W.#X  ",
"  Z f 0 w g.0 0 b c 0 w g e.i.M.K.L.U.XXOX|.OX^.8X5X=X%X+XOXXXOXOXOXOX|.Q.|.!.+X%X@X|.XX|.Q.|.XX|.Q.Q.Q.|.U.L.Y.Z.B.V.V.G.q.V.r.4.u.aXiXaX8.8 aXpXmX  ",
"  b d o b g.0 q r $ $ d D.^.1X0X5X8X8XdXfX0XdXsXzXzXvXdXdXdXhXdXdXhXhXhX0XhXcXdXhXdXsX7XsXdXzXdXwX0XdX8X-X=X8X=X3XoX'.[.{.V.p.t.aXpXiXiXpXf.s.pXpXpX  ",
"  b d q b f 0 q q d p V ^.eXeXeXfXfXfXfXlXfXgXgXxXgXgXdX6XdXfX0X=X0XgXfXdXfXgXfXsX0X8X+X8X0X0XeX5XtX9XtXfXdXtXfXaX4X4X6X3XE.i.D.pXiX}.f.}.}.}.iXpXmX  ",
"  j.p o f o o 0 d f a z.<XrXfXrXrXfXrXeXfXfX7XeXeXeX6XfXeX$X8X6X6X%X7X0X8X5XsXfX0X+X|.Q.5X7X+X+X6X6X$X1X6XtX7XeX3X<X3X3X<XP.W.T.pXiXiXiXiXiX4XpXbX    ",
"    Z O 0 X 0 q p p l J.^.<XuX1X<X1X<XuX<X1X5X$X@XQ.$X6X1X1X7X5X$X^.5X~.$X7X7X5X6X1X%X!.7X1X~.!.!.1X@X~.<X~.~.1X3X[.W.W.<XE.E.P.MXmXpXmXpXmX3X4XwX    "
};
