/* XPM */
static char *_5a45a2c65734cf4cce1e04a76fe07d2Ybb1cDoh5i6pBNuz[] = {
/* columns rows colors chars-per-pixel */
"60 60 120 2 ",
"   c #1E3E33",
".  c #143C3B",
"X  c #1D3C3F",
"o  c #1D4336",
"O  c #164138",
"+  c #1C453C",
"@  c #16483D",
"#  c #1D4B3C",
"$  c #244437",
"%  c #20463B",
"&  c #224B3D",
"*  c #25533E",
"=  c #28513F",
"-  c #2A5B3E",
";  c #35653D",
":  c #35683F",
">  c #223F44",
",  c #1D4543",
"<  c #164940",
"1  c #1E4B42",
"2  c #1F5C48",
"3  c #224443",
"4  c #244C43",
"5  c #294D43",
"6  c #234449",
"7  c #28474C",
"8  c #254D4B",
"9  c #2A4E4B",
"0  c #255244",
"q  c #2B5444",
"w  c #275A43",
"e  c #2C5C45",
"r  c #25544B",
"t  c #2B534C",
"y  c #255B4C",
"u  c #2D5B4C",
"i  c #315144",
"p  c #315B46",
"a  c #31554C",
"s  c #335C4C",
"d  c #395C4D",
"f  c #264F51",
"g  c #2A4E50",
"h  c #324C56",
"j  c #265251",
"k  c #2C5452",
"l  c #265C51",
"z  c #2D5B52",
"x  c #2A5459",
"c  c #2E5B5A",
"v  c #325553",
"b  c #395755",
"n  c #335C53",
"m  c #395C54",
"M  c #345659",
"N  c #38575A",
"B  c #345D5A",
"V  c #395E5A",
"C  c #2D6345",
"Z  c #27624D",
"A  c #2D624C",
"S  c #326446",
"D  c #386743",
"F  c #346A45",
"G  c #3A6C47",
"H  c #33634C",
"J  c #38634D",
"K  c #356A4C",
"L  c #396C4D",
"P  c #3B714E",
"I  c #2D6254",
"U  c #2E6954",
"Y  c #2E655A",
"T  c #2E6B59",
"R  c #346354",
"E  c #3A6454",
"W  c #346A54",
"Q  c #3A6C55",
"!  c #35645A",
"~  c #3A645B",
"^  c #356A5C",
"/  c #3B6B5B",
"(  c #3A7155",
")  c #34705E",
"_  c #3D725C",
"`  c #3D785C",
"'  c #3A5F61",
"]  c #366361",
"[  c #3B6462",
"{  c #356D61",
"}  c #3C6C62",
"|  c #3E6668",
" . c #367262",
".. c #3C7363",
"X. c #3E7967",
"o. c #3C7568",
"O. c #3F796A",
"+. c #426456",
"@. c #436D57",
"#. c #426558",
"$. c #436D5C",
"%. c #486A5C",
"&. c #417457",
"*. c #42725D",
"=. c #48745E",
"-. c #406765",
";. c #426D63",
":. c #416F6B",
">. c #437463",
",. c #497563",
"<. c #457865",
"1. c #497966",
"2. c #447769",
"3. c #437C6C",
"4. c #4C7B6C",
"5. c #507466",
"6. c #537867",
"7. c #537769",
"8. c #527B69",
"9. c #528274",
/* pixels */
"! Y ! ^ ../ s q 4 4 % 7 7 h h h 9 u B n s n B n v k v v v v m N v t 4 4 4 5 k v n n c k c k c c l n ! ^ ^ ^ ! R I I Y Y ",
"{ { ! ! / / R n s a a 7 > > > 7 k z n n B R s t t t 9 d v h a t d t 5 & 3 4 4 4 k k k k k k k k z n ! ~ ~ ! I l I I Y ^ ",
"} ] ! Y ! R E / $.-.~ v 3 X > g u H R R E ~ n 0 t t a B m v v a ~ m z q t t t t 8 t 9 r 9 f k k k c R ! ! n l r 2 j l I ",
"' Y Y z l n ~ / -.;.5.~ b a N | n R ! R ~ / R b t t s m V m N V ~ R B R ! R B ~ z k k k k g k t t t z z c z n l ] ! ] Y ",
"c ] ! c t l n ! ! / ;.>.;.-.} :.! / *./ / $.;.$.n u u n B n R ~ n R c ! ~ ~ ~ ~ ~ B B a k v k v 9 r f k k B ] ] :.| [ ! ",
"] [ [ B c u l u z n } ;.>.:.} / / >.<.*.$.>.1.1./ E m m m n E ~ ! I R R ^ ~ ^ ~ ~ B v t 9 5 9 9 g k j k M V [ | } [ ] B ",
"| | [ ' B n z z u I ! ^ ^ { / } *.>.,.>.=.,.1.>.>.$./ / ~ R B E ^ ! ^ ^ { } [ ~ ~ B s a 9 5 9 5 9 f g k k M M ! [ | } | ",
"[ ] ' B B n B B R ! ! ! ^ / ..3.*.=.=.=.,.1.>./ / E E Q ! R R R ^ ! ! ! ~ { } / -.$.V B v b b b 6 8 g f k g g f g c ' ~ ",
"M c v v k z z z c R ! ^ ^ ^ ^ W Q Q *.>.<.>.<.1.*.*./ / ^ ! R u l Y ^ } ^ ! ! ~ ;.$.~ E m m m m 9 k 8 , , g k k 9 k k k ",
"g 9 g k k k k k z B n Y ! W W W / Q Q *._ Q Q / / / _ / R I u I y l I ^ ^ ^ } / n R B n n b m m t k t 8 9 t k 8 k v v v ",
"9 9 9 9 t k v k n z z l n R R R Q / Q *.Q A u I I ^ / ^ I l I Y l y y l ! ^ } ^ n ! E m q 4 q t m B ~ ~ ~ ~ m n 8 t t 9 ",
"d d v v v v v k k k k k u z z R Q Q / / ^ R I R A I ^ ^ ^ Y ^  .^ I r r z ^ } ~ / / ~ R u 0 0 q n E / :.;.>.;./ 5 t q 4 ",
"V +.m m m v h k g k k k k u t q R R / >...^ ^ } ] Y Y { ^  .{  .o.! I B ^ } -.{ / / ~ E R R J R e u H ! Q / Q $.E E d q ",
"#.+.+.+.b v v g 9 k v v v v t 5 u z ^ >./ / ^ >.o. .{ T { { { ] ! ! { ;.>.>.>.>.4.<._ / / Q Q Q W W R Q Q Q Q $.=.=.=.E ",
"E +.J m b v a v M h M v h t 9 9 8 y ! { ^ I ! { o.o. .{ Y Y Y Y n ! ! ^ ! ~ _ 2.9.9.<./ Q R W W ( Q L Q Q L Q $.=.=.=.@.",
"m m d m b m N b N M M h t 9 9 5 4 0 n ! c y k c { ..o.T Y l I Y I ! u 0 , 0 / 4.>.1.>./ W J Q =.E A A S S s p J Q %.=.=.",
"d b b b b b b v b M k v k k k k 4 4 9 t r j k c j ^ :.{ z l R R W Z C Z A y A R / / $.@.@.@.@.@.#.~ B n p t p b m b v v ",
"9 v B B a 9 h v V M 9 8 8 r r r 0 t t 9 8 8 9 j 1 k B z u z ! W ( W W ( ( W Q Q E E E J J J d d v t d a v s b d q 9 a t ",
"k B n k 3 . + 3 3 3 t z Y I I l u u u 9 8 8 8 8 , r r r r I R W ( K ( ` <._ ! ! m S s e p p p p t t 9 4 4 4 4 & 4 4 9 9 ",
"u I c u 4 # # 4 O 1 l ! } } ^ R R m n u q r t r r j l l u I I W U A W _ ` ^ H u u t 0 0 = i d J V n 9 # o o 4 q q q u u ",
"y 2 y Z I R ^ ! ! R I z R ! ^ ^ E R R H n R ! ! l u I W Q W I K W A W ^ / ^ I R z r 4 # # * s E R n u r t m / *.E R E m ",
"y 2 2 y I / ^ / / ~ R A I A I I R R J Q ^ / / ^ I z I / ^ W W W W A U W ^ I R ! ~ R q 0 4 u E / n n B ~ / $.$.*.$./ E R ",
"U Z Z Z Z I R H A s n H R R u e K K J W / / / Q I R W ^ W W W _ W U I W ^ I ! I ^ ! ! z s E / $.E / / $./ Q ! K E Q Q R ",
"T W T U A R E #./ R u q q u R J K K K Q _ _ W W ^ W / _ W K W ` ^ W W ^ / ^ ! ^ R n R R E / $.*.>.>.*.( Q Q W Q u A K R ",
"U _ / H u q p d a d d d d p p p Z F K K K W ^ ` W _ _ ..*._ Q K Q W W I ! ^ { ] } { R R ! ! / _ _ Q ( Q W W Q *.W R W W ",
"R Q Q n u u i q +.#.%.+.d a d d - : C C C C A A u K W Q _ Q K A A Z I I I ^ ^ ! z I R I H H Q W Q ( Q K A A K W A R R W ",
"H s J s d d a i i d d d i = a J F F F K C C y e 2 w u H H S w 0 C w A R ^ _ } ..c ^ ....Q R W Q P P L K H e u e A A R K ",
"u s n p s d i 5   $ 5 5 5 5 a p K F K K C A w w # # * 0 0 * 0 * y w A W _ ....>...>.3.<...( W W Q P L L K C u u u u z z ",
"u u R s t 5 & 5 4 5 t s E ! R A F F F C S e 0 * * 0 0 0 & 0 0 p K R W W _ ........>...` _ ( Q L G G G G K J A u u u z u ",
"u z m n 4 o o & t q s ~ >.>.^ U C F C K S S w q p u u q q q s E *.` _ ` *._ _ _ .._ _ _ ` ` ` ( F F D S K J H s n c R c ",
"R I n z u 4 0 t t u I ^  . .T U F C F F L Q R S n m m u p a J E ( ( ( W / ( _ W Q ) _ _ ` ` ` &.D ; ; D G J R n n R V V ",
"R z l R ! R ! ! ^ ..o...^ T U U Z C C K Q Q E ! e s R m p q p J w - w w A A I K W / ` ` ` K ( P G D S S J R J R B ! ! ~ ",
"~ E n c R R ^ } ..2.2.o. .{  . .U W A A Z C A C A K W Q Q L S S w e A C A C K C L K L P P P F C *.Q S J E / ~ E m u u m ",
"~ E ~ E ! ! ~ ^ ....o.o... .o.O.X. .) ^ W W A U Z A K P L K K S C C S A S A S K P P L P P P F F H s u t s s E R / / / $.",
"~ $.} / ~ R R ! } ..{  . . .O.O.O.X.X.X.X._ W K C A K K K K D S p S S u H S S S K K L Q Q L S - s z u q 0 0 q u n u n E ",
"m ~ -./ ! n l u Y c I I Y { o.O.X.X.`  ._ ) W Z A A C C S S K S e e e e p p p e S S S J J S - - 0 0 8 r 0 t l n u u n ! ",
"n n B B m z c R l y r y I T {  . . .) ) ^ U Z w w w e e e p p S e 0 - q i e e 0 q e e s p p 0 * + O + 1 u B ! ~ ! B B z ",
"t t u a n R ~ ! u y r y l Y ^ ^  .) ) ) U I Z w w e e e e - e i p p * e p s a q i e q a p t q 0 r 1 4 r B ~ | ! B B z r ",
"n z k B ! / ~ ! c u r y l R ^ T ^  .) T I Z y A Z u u e p p q - p e = q p s d u u t 9 q a t t t j k k B [ ~ ] B ~ [ [ B ",
"[ ! B E ~ -.R n c u u u z I R I T ) ) U y y y I u A H s p p i e i q i i d s s d t 9 9 9 9 v t 9 . , 8 k c B V ] B [ } ' ",
"B B V ~ B k 0 & 4 u ~ } R z R ^ I T ^ I I I I w w R z q s s q 0 = q q t i a a t a a t g v v M V j j k c V ] ] [ ' ] ' B ",
"n B B n v u r 8 q n E R m s H R I T ^ Y I I u y r n u w s q 4 & 5 5 9 q q 9 q 9 t 9 9 9 g v B V ' B B c V ] B V B B c B ",
"M k k t t 9 t 9 t 0 q 0 u s m R Z R R I I I l u z ! u 0 u u 8 0 q a a t t 5 t a a v 9 v k v v M V B c k c c c c c B B c ",
"M k t 9 8 8 5 4 8 4 4 & 4 q q u z z I z l R R c R / z t z z u z v m E b v t v N v v v v v n v k z k k t k z B v k z B c ",
"k k k k t 8 4 4 t t t 5 q = = 5 n u t t l z R ! n ! u r z R c ! B ~ ~ V n k M ~ R m m B B B B E z k k z B n B ! k l v n ",
"g k k k k 9 9 3 9 t d d d E E +.q 4 4 4 8 8 q l r l r 1 l l l ! } -.-.-.V ! ~ [ m B ~ R m E ~ ~ n n z n z n n k k r t k ",
"f k k c v v a 9 q q a d %.5.6.6.t 5 4 4 4 & , 1 1 r 1 < 2 j l Y [ [ V V V B V V ~ ~ m s n s m R u z u n z z t r t r r r ",
"f g k v B v B n V d u d *.6.6.,.E n s b n 0 4 2 1 r 1 @ r y j l z k f t t t k u :.~ B n u t t t m B B B V B z t t r 8 4 ",
"f x c ' ] [ [ ^ u y w A R Q &.Q J R Q E E Q R u u u 0 4 1 # # 1 4 3 + + 4 9 r t 9 f j j j f f f x c M M ' ' f 6 1 , , , ",
"c ' ] ] ] ] ! ! R R H u - e C H Q Q _ Q Q / Q J H s u u q q q t % & 4 3 + 4 4 k f f k j x x x x f g M ' ' ' M f 7 6 6 6 ",
"c c c c c c z l y u H H e e S L Q Q Q W R / Q E J R J J R s s s 5 q s q 3 + 8 k 8 9 f f f j j x x M B ' | -.' x g g f f ",
"f j j j r r 0 4 # w J Q ( K K K S S S e e S H A H J R E E R J s d m ~ n 0 4 r t r 9 f 8 9 f f f M B B B ' [ B M M k k k ",
"j k r r u u r w u S Q / Q L S - e e e - * e s e s J R E E m J s s b m p t t t q n z k c x k x k c v k 9 k M B k k k 9 9 ",
"l l q r z n u u E R H H G S S e e S e e e S S s H J J E E E E R s p u u m E R n R n n z l k z z v v k u M [ [ V n v k t ",
"z u w u u H u e J H J s s S G J C S H u S J E S S s d E J R m s d p a m m ~ ~ B B m z s z n n B B ~ V B ~ -.;.~ R B n b ",
"R u y u R R J u S J @.Q J p p p e S S e u J J s s s s s p d p a i a u p s p s u m R B B B ! [ } B ! ~ ~ ~ -.~ n B n n B ",
"K K u H J H S s s s E Q E S s J s J H s s J s e p s a s d a d d m a E v ~ t m u u n n n n B ! / ;.B s n q n ! B E ~ / :.",
"u u u u A u u e s p s J d d p d s J S s u J s u p u p t a a u a s p m u ~ s R s n n n z n n ! ! E s a u t s E n s m m E ",
"A u C u u s p w p = = q a p a s s s s w q p s a t t t a a t a a d a B t ~ m B n n m n n n u z n s q u m s R ! s u u s n ",
"A A S A H H n u q % o & 5 a q q p u u 4 % 8 u u q t a a v 9 a a k a R t ~ m ~ v n B n z z u z I n u R / E / / H u u u H "
};
