/* XPM */
static char *f400ef689f10431f8097611b8b3884ea9DzE383dwvtI0HCR[] = {
/* columns rows colors chars-per-pixel */
"60 68 239 2 ",
"   c None",
".  c #47190C",
"X  c #581E10",
"o  c #50120D",
"O  c #542012",
"+  c #682613",
"@  c #782B17",
"#  c #74340C",
"$  c #6D1C19",
"%  c #6B5E6A",
"&  c #665864",
"*  c #705E6B",
"=  c #71636E",
"-  c #7E6E6D",
";  c #726571",
":  c #7B6D79",
">  c #776976",
",  c #756B72",
"<  c #664B4B",
"1  c #8C1616",
"2  c #881818",
"3  c #94191A",
"4  c #9C1A1B",
"5  c #971717",
"6  c #A41D1E",
"7  c #AA1E1F",
"8  c #B11E1F",
"9  c #8F271A",
"0  c #AD201F",
"q  c #9F1C22",
"w  c #AC1F20",
"e  c #A41E20",
"r  c #9C2726",
"t  c #953832",
"y  c #AD2222",
"u  c #A32725",
"i  c #B42323",
"p  c #BB2525",
"a  c #BD2C29",
"s  c #BD2927",
"d  c #A73938",
"f  c #BB2931",
"g  c #C12726",
"h  c #C32827",
"j  c #C42A29",
"k  c #CC2D2B",
"l  c #C02728",
"z  c #CD312E",
"x  c #C6322E",
"c  c #D2322F",
"v  c #D93633",
"b  c #DC3A35",
"n  c #D93934",
"m  c #D03230",
"M  c #E03C37",
"N  c #975A18",
"B  c #964909",
"V  c #B95604",
"C  c #A6500C",
"Z  c #B7680B",
"A  c #B4740E",
"S  c #A76B17",
"D  c #AB6D11",
"F  c #B14E35",
"G  c #947038",
"H  c #A77032",
"J  c #9C433D",
"K  c #CB6D0F",
"L  c #CF4A2A",
"P  c #E1443D",
"I  c #C4562E",
"U  c #8A3C44",
"Y  c #D73A46",
"T  c #874B48",
"R  c #AC5651",
"E  c #836A4D",
"W  c #81674A",
"Q  c #886D52",
"!  c #8A7254",
"~  c #91785B",
"^  c #9B7844",
"/  c #A67646",
"(  c #957D63",
")  c #867273",
"_  c #A77A61",
"`  c #B3796C",
"'  c #AA5564",
"]  c #CC5757",
"[  c #E44856",
"{  c #C96756",
"}  c #C86664",
"|  c #BC8516",
" . c #B0872E",
".. c #C78716",
"X. c #D69B1A",
"o. c #D58E14",
"O. c #E3930E",
"+. c #DAA41A",
"@. c #D6B21A",
"#. c #E4AC1E",
"$. c #EBAB15",
"%. c #EAB51C",
"&. c #F3BD19",
"*. c #DBB528",
"=. c #D8A526",
"-. c #E6B724",
";. c #CF8127",
":. c #DFC01A",
">. c #ECCC1D",
",. c #ECC629",
"<. c #F1CC2A",
"1. c #F4D62A",
"2. c #F4D934",
"3. c #ECD42E",
"4. c #F9E62C",
"5. c #F7E432",
"6. c #DEC636",
"7. c #B29649",
"8. c #B08E4E",
"9. c #BEA355",
"0. c #9F896B",
"q. c #998264",
"w. c #86887E",
"e. c #A18B6D",
"r. c #A68867",
"t. c #A68C72",
"y. c #A69273",
"u. c #A99576",
"i. c #AD9C7C",
"p. c #AA9578",
"a. c #B09E7D",
"s. c #AF8E71",
"d. c #B6A376",
"f. c #9B8259",
"g. c #CBAA5B",
"h. c #D18F75",
"j. c #CAB16A",
"k. c #E4CC4E",
"l. c #DDC76D",
"z. c #D9CA7D",
"x. c #E8D778",
"c. c #E0CC6F",
"v. c #EFE556",
"b. c #847582",
"n. c #8B7B89",
"m. c #C17780",
"M. c #8D868A",
"N. c #91848B",
"B. c #909387",
"V. c #998996",
"C. c #9D9E97",
"Z. c #A4959A",
"A. c #B09386",
"S. c #B4A484",
"D. c #BAAB8C",
"F. c #B8A688",
"G. c #A6A799",
"H. c #BDAE91",
"J. c #BFB093",
"K. c #B4B39F",
"L. c #B09BA4",
"P. c #A7A7A5",
"I. c #B9BCAD",
"U. c #B5B7A8",
"Y. c #BBBDB4",
"T. c #AFAEA1",
"R. c #DB8886",
"E. c #C39489",
"W. c #E3908C",
"Q. c #C2B495",
"!. c #C3B59A",
"~. c #C5B99C",
"^. c #CEA998",
"/. c #CABEA2",
"(. c #C4BDA5",
"). c #D7A8BA",
"_. c #CEBDB5",
"`. c #E8ACA6",
"'. c #EDBEB5",
"]. c #E99EAB",
"[. c #BEC1B3",
"{. c #BFC0BC",
"}. c #D1C98A",
"|. c #CDC2A6",
" X c #CEC4AA",
".X c #D1C6AC",
"XX c #D3C9AE",
"oX c #C3C6B9",
"OX c #C6C9BE",
"+X c #C8C6B8",
"@X c #D6CCB3",
"#X c #D6CBB7",
"$X c #DBD3BC",
"%X c #D8D2B8",
"&X c #E8C8BC",
"*X c #E6D88E",
"=X c #DDB8C3",
"-X c #E4B4CA",
";X c #E9BCD2",
":X c #B9C6D3",
">X c #CBCCC3",
",X c #C4C8C9",
"<X c #D6C8C6",
"1X c #CED0C6",
"2X c #DDD6C2",
"3X c #DFD9C3",
"4X c #D2D4CB",
"5X c #D9D7CB",
"6X c #DADBD5",
"7X c #DCDDD9",
"8X c #D6D7D1",
"9X c #D4CCD2",
"0X c #E1DCC5",
"qX c #E3DECB",
"wX c #E5D5CB",
"eX c #EDC4D9",
"rX c #E7DED7",
"tX c #F1CFDA",
"yX c #DFE0DD",
"uX c #E5E0CE",
"iX c #E7E0C3",
"pX c #E6E2D2",
"aX c #E9E4D5",
"sX c #EAE7DA",
"dX c #ECE9DC",
"fX c #E2E2DD",
"gX c #CEDDEC",
"hX c #F5D7E9",
"jX c #F3D3E6",
"kX c #D9E5F2",
"lX c #DDE4EC",
"zX c #E3E4E3",
"xX c #EEEBE2",
"cX c #ECEAE8",
"vX c #F1EEE6",
"bX c #F2EFE8",
"nX c #F4F1EA",
"mX c #E7ECF6",
"MX c #F5E6F4",
/* pixels */
"                                                                                                                        ",
"                                dX                                                                                      ",
"                                uXrX                                                                                    ",
"                                  `.bX                    dX                                                            ",
"                                  &XW.dX                vXwX                                                            ",
"                                  sXR.wXaX            xXaXaX                                                            ",
"                                  aX`.} qX          pXsX`.                                                              ",
"                                    tX} .X2X        qXqX'.                                                              ",
"                                    qXW.R XX  $X3X  $X).xX                                                              ",
"                                      uX} !. X@X3XsXXX}                                                                 ",
"                                         XD. XuX3X%X X0X                                                                ",
"                                        3X$XuXdXdXuXpX                                                                  ",
"                                      uXaXsXdXdXnXvXvX                                                                  ",
"                                      iXsXdX1X< B.nXOXOX                                                                ",
"                                    %X0XpXdX+XaXxXnXsX2X                                                                ",
"                                    @XiXsXaX0XrXaXbXxX0X5X                                                              ",
"                                  |.%XiXdXpXxXvXwXnXaXvXrX                                                              ",
"                                   X$XpXdXK.L.9XL.xXA.Z.G.                                                              ",
"                              %X%X@X0XpX<XjXhXhXtXaXeXMXhX                                                              ",
"                          qX2X$X$X0XqXpX).jXhX$ U dX;Xt =XeX                                                            ",
"                          uXpX0X3XuXaXsX).;XjXT U dX-Xo ).eX                                                            ",
"                        dX X.X0XuXaXsXsXwX).-X-X).aX0X-XeX;XdX                                                          ",
"                       XS.2X@X$XiXpXsXsXlXmXMXjX-XR.m.`.).<XmXmX                                                        ",
"                          |..X$X0XpXsX8XmXmXmXmXk Y [ [ ] mXmXmX,X                                                      ",
"                          D.|.%X3XuXpX6XkXkXkXkXR q q q r kXkXmX:X                                                      ",
"                          S.~..X$X3XiXuX4XgXkXzXsX^.u d qXkXgXgX:X                                                      ",
"                        l.z.S.!. XXX%X$X2XqXaXsXdXsX#XaXdXuXOX#X                                                        ",
"                          c.u.S.J.!.|.|..X$X0XqXuXpX$XrXuX$X/.|.                                                        ",
"                            j.e.i.a.D.H.Q.|.@X$X0X2X$X2X$X(.Q.        aX                                A A A           ",
"                          a F r.e.y.u.a.S.J.~. XXX~.XXXX!.S.z.x.*XiXaX^.C K O.&.1.4.4.1.            +.@.        :.      ",
"                        x z j 8.e.0.e.y.u.S.D.Q.i.o J.J.y.j.c.x.x.x.$XC V K $.>.4.4.4.4.1.&.        @.B Z         >.    ",
"                      l v n n a 7.y.e.e.e.D.p.Q o . t.t.9.g.j.l.l.{ 0XC Z o.=.,.3.5.4.1.<.&.O.K     D Z ..-.        >.  ",
"                    i j v M b z F  .aXt.u.sXA.m.].' q.7.7.9.g.I v h. X .9.F.J.|.}.v.v.2.3.$.o.V ..K ..@.*.K         >.  ",
"        xXxX        i z n M b k u f.sXF.0XpX0.!.F.y.0.f.7.7.r s c Q.$X2X7X(.B.[.1X4X6X%Xv.*.O.V +.K ,.3.5...        @.  ",
"      3XaXvXaX3XaXr p c v b b v 2 W pX$XsXS.3XdXD.0.f. .H 9 2 9 H H.T.U.w.[.B.{.C.{.C.7X7X5X=.A X.@.*.3.,.K       |     ",
"  J.3XrXsXxXvXsXXX5 p j j k k j 8.pXvXnXpXqX0X XdXt.G t e 0 5 S G.K.T.T.[.[.{.[.>X4X>XC.7XyXlX8.C ,.o.                  ",
"  J.aXxXsXsXaXvXd 4 e w y 7 7 7 j.xXnXbXxXuXpXpXS.q.9 g p p 0 u w.- G.U.[.[.[.[.>X1X4X8X>XP.7X7XH A K                   ",
"  J.3XqXuXuX3X<X2 3 4 4 4 4 4 4 / wXxXvXsX5X Xu.( N # k c k s 0 J w.G.K.[.[.[.[.>X>X4X1X] A.Y.P.mX| $.                  ",
"  S. X#X$X0X$X2 2 3 4 4 5 4 4 5 r p.F.F.r.S D N # @ 9 r b P s p 0 d w.[.K.[.[.OXOXoXE._.7X7X7XzXzXD.*.                  ",
"  S.(.qX0X2XJ 1 1 5 6 e 4 4 5 4 3 2 p 2 @ @ X + + X + + P P s j p i J C.U.[.[.oX] _.4X4X6X6XyXP.8X7X6.                  ",
"  ~.i.Q.XX` 2 1 3 4 4 6 7 7 6 6 j n v + + X . . X X X X n x x x h p i s.U.U.[.(._.>X>X4X8X7X7XyXzXzX .                  ",
"  D.Q.d.r.2 1 5 4 6 6 y 7 i i 7 m b c + X + o.+.X.#.=.S K P P c k h i 0 G.I.I.s.,XoX>X4X8X8XY.,XP.5X                    ",
"    u.r.9 5 5 6 6 6 7 i i i p i 3 b n N ..-.#.-.-.+.%.#.;.P b c c j j i T.U.p.[.oXoX>X4X8X8X7X{.7X^                     ",
"      r 5 4 6 6 7 7 8 p p p p j x a L X.-.X...3.=.<.&.-.#.I v c k z j a K.( ) G.oXw.C.4XG.M.P.rXF.#                     ",
"      4 6 e 7 7 7 p p p j l p x M M I %.,.<.1.,.<.<.<.-.-.) a z p c j y +.;.D.[.[.U.>X>X1XY.OX .B                       ",
"    4 6 6 6 0 8 p g g g j k h p v v O.%.<.1.1.2.2.3.<.g.M.: * y p i z 0     ....S H / / H S D                           ",
"    5 6 7 y 8 p g h j j z k j 8 c k +.-.<.1.2.2.k.j.Z.V.n.> % & r 8 s j                                                 ",
"      7 7 i i s h j j k k c j 7 j L X.-.k.j.S.Z.Z.V.V.N.) ; & > = e 0 s y                                               ",
"      w i p l g g g j k k k k 8 j ) n.V.V.Z.V.V.V.n.n.n.: % : : )     0 g u                                             ",
"      6 p p g g g g j k k k j 8 p > b.n.V.n.n.n.b.b.b.b.= ; b.) !       R a R ~.@X2XiXpXaX                              ",
"        8 g p p p g j k c k j i t > : b.b.b.b.b.: > ; = % ; * - ~ q.q.q.e.y.F ` J.|.@X$XqX                              ",
"          p p p p l k k k k g p & % = > : : ; ; ; = ;   & % G G E E Q ! ~ q.0._ r.S.D.~. X%X                            ",
"          4 8 p g h k k k k g i & & % % = = ; ;             - W Q Q ! ~ q.0.y.u.i.i.S.S.H.~.%X                          ",
"            6 p l j j k k c g < & %                         0.t.y.            i.i.i.F.D.D.S.~.                          ",
"              7 k j k k k k p & % =                                                   F.J.y.D.|.                        ",
"                8 j k k k k U - y.(                                                     S.J.i.                          ",
"                    j k k k ( S.S.y.                                                                                    ",
"                      p k   0.S.J.F.                                                                                    ",
"                            i./.@X@XF.                                                                                  ",
"                            H.3XaXaX2X                                                                                  ",
"                             XsXxXxXdX$X                                                                                ",
"                            2XxXsXxXqXqX|.                                                                              ",
"                            3XpX%XsX@X.X.X                                                                              ",
"                            .XXXD.$X|.y.H.a.                                                                            ",
"                            H.D.e.H.H.0.D.S.                                                                            ",
"                            i.H.p.D.!.t.H.                                                                              ",
"                              !.                                                                                        ",
"                                                                                                                        "
};
