/* XPM */
static char *_049b8c91631424bf4f74d0746ed38d1S9opFBeMqXLPCsZ6[] = {
/* columns rows colors chars-per-pixel */
"60 68 239 2 ",
"   c None",
".  c #47190C",
"X  c #581E10",
"o  c #50120D",
"O  c #542012",
"+  c #682613",
"@  c #782B17",
"#  c #74340C",
"$  c #6D1C19",
"%  c #6B5E6A",
"&  c #665864",
"*  c #705E6B",
"=  c #71636E",
"-  c #7E6E6D",
";  c #726571",
":  c #7B6D79",
">  c #776976",
",  c #756B72",
"<  c #664B4B",
"1  c #8C1616",
"2  c #881818",
"3  c #94191A",
"4  c #9C1A1B",
"5  c #971717",
"6  c #A41D1E",
"7  c #AA1E1F",
"8  c #B11E1F",
"9  c #8F271A",
"0  c #AD201F",
"q  c #9F1C22",
"w  c #AC1F20",
"e  c #A41E20",
"r  c #9C2726",
"t  c #953832",
"y  c #AD2222",
"u  c #A32725",
"i  c #B42323",
"p  c #BB2525",
"a  c #BD2C29",
"s  c #BD2927",
"d  c #A73938",
"f  c #BB2931",
"g  c #C12726",
"h  c #C32827",
"j  c #C42A29",
"k  c #CC2D2B",
"l  c #C02728",
"z  c #CD312E",
"x  c #C6322E",
"c  c #D2322F",
"v  c #D93633",
"b  c #DC3A35",
"n  c #D93934",
"m  c #D03230",
"M  c #E03C37",
"N  c #975A18",
"B  c #964909",
"V  c #B95604",
"C  c #A6500C",
"Z  c #B7680B",
"A  c #B4740E",
"S  c #A76B17",
"D  c #AB6D11",
"F  c #B14E35",
"G  c #947038",
"H  c #A77032",
"J  c #9C433D",
"K  c #CB6D0F",
"L  c #CF4A2A",
"P  c #E1443D",
"I  c #C4562E",
"U  c #8A3C44",
"Y  c #D73A46",
"T  c #874B48",
"R  c #AC5651",
"E  c #836A4D",
"W  c #81674A",
"Q  c #886D52",
"!  c #8A7254",
"~  c #91785B",
"^  c #9B7844",
"/  c #A67646",
"(  c #957D63",
")  c #867273",
"_  c #A77A61",
"`  c #B3796C",
"'  c #AA5564",
"]  c #CC5757",
"[  c #E44856",
"{  c #C96756",
"}  c #C86664",
"|  c #BC8516",
" . c #B0872E",
".. c #C78716",
"X. c #D69B1A",
"o. c #D58E14",
"O. c #E3930E",
"+. c #DAA41A",
"@. c #D6B21A",
"#. c #E4AC1E",
"$. c #EBAB15",
"%. c #EAB51C",
"&. c #F3BD19",
"*. c #DBB528",
"=. c #D8A526",
"-. c #E6B724",
";. c #CF8127",
":. c #DFC01A",
">. c #ECCC1D",
",. c #ECC629",
"<. c #F1CC2A",
"1. c #F4D62A",
"2. c #F4D934",
"3. c #ECD42E",
"4. c #F9E62C",
"5. c #F7E432",
"6. c #DEC636",
"7. c #B29649",
"8. c #B08E4E",
"9. c #BEA355",
"0. c #9F896B",
"q. c #998264",
"w. c #86887E",
"e. c #A18B6D",
"r. c #A68867",
"t. c #A68C72",
"y. c #A69273",
"u. c #A99576",
"i. c #AD9C7C",
"p. c #AA9578",
"a. c #B09E7D",
"s. c #AF8E71",
"d. c #B6A376",
"f. c #9B8259",
"g. c #CBAA5B",
"h. c #D18F75",
"j. c #CAB16A",
"k. c #E4CC4E",
"l. c #DDC76D",
"z. c #D9CA7D",
"x. c #E8D778",
"c. c #E0CC6F",
"v. c #EFE556",
"b. c #847582",
"n. c #8B7B89",
"m. c #C17780",
"M. c #8D868A",
"N. c #91848B",
"B. c #909387",
"V. c #998996",
"C. c #9D9E97",
"Z. c #A4959A",
"A. c #B09386",
"S. c #B4A484",
"D. c #BAAB8C",
"F. c #B8A688",
"G. c #A6A799",
"H. c #BDAE91",
"J. c #BFB093",
"K. c #B4B39F",
"L. c #B09BA4",
"P. c #A7A7A5",
"I. c #B9BCAD",
"U. c #B5B7A8",
"Y. c #BBBDB4",
"T. c #AFAEA1",
"R. c #DB8886",
"E. c #C39489",
"W. c #E3908C",
"Q. c #C2B495",
"!. c #C3B59A",
"~. c #C5B99C",
"^. c #CEA998",
"/. c #CABEA2",
"(. c #C4BDA5",
"). c #D7A8BA",
"_. c #CEBDB5",
"`. c #E8ACA6",
"'. c #EDBEB5",
"]. c #E99EAB",
"[. c #BEC1B3",
"{. c #BFC0BC",
"}. c #D1C98A",
"|. c #CDC2A6",
" X c #CEC4AA",
".X c #D1C6AC",
"XX c #D3C9AE",
"oX c #C3C6B9",
"OX c #C6C9BE",
"+X c #C8C6B8",
"@X c #D6CCB3",
"#X c #D6CBB7",
"$X c #DBD3BC",
"%X c #D8D2B8",
"&X c #E8C8BC",
"*X c #E6D88E",
"=X c #DDB8C3",
"-X c #E4B4CA",
";X c #E9BCD2",
":X c #B9C6D3",
">X c #CBCCC3",
",X c #C4C8C9",
"<X c #D6C8C6",
"1X c #CED0C6",
"2X c #DDD6C2",
"3X c #DFD9C3",
"4X c #D2D4CB",
"5X c #D9D7CB",
"6X c #DADBD5",
"7X c #DCDDD9",
"8X c #D6D7D1",
"9X c #D4CCD2",
"0X c #E1DCC5",
"qX c #E3DECB",
"wX c #E5D5CB",
"eX c #EDC4D9",
"rX c #E7DED7",
"tX c #F1CFDA",
"yX c #DFE0DD",
"uX c #E5E0CE",
"iX c #E7E0C3",
"pX c #E6E2D2",
"aX c #E9E4D5",
"sX c #EAE7DA",
"dX c #ECE9DC",
"fX c #E2E2DD",
"gX c #CEDDEC",
"hX c #F5D7E9",
"jX c #F3D3E6",
"kX c #D9E5F2",
"lX c #DDE4EC",
"zX c #E3E4E3",
"xX c #EEEBE2",
"cX c #ECEAE8",
"vX c #F1EEE6",
"bX c #F2EFE8",
"nX c #F4F1EA",
"mX c #E7ECF6",
"MX c #F5E6F4",
/* pixels */
"                                                                                                                        ",
"                                                                                      xX                                ",
"                                                                                    aXuX                                ",
"                                                            dX                    vX`.                                  ",
"                                                            tXxX                dXR.&X                                  ",
"                                                            rXaXxX            aXrXh.dX                                  ",
"                                                              `.aXpX          iX} `.aX                                  ",
"                                                              '.qXqX        0X.X} tX                                    ",
"                                                              dX^.$X  0X$X  .XR W.3X                                    ",
"                                                                m.@XaX0X@X XQ.} uX                                      ",
"                                                                0X.X#X0XuX XD.XX                                        ",
"                                                                  pXqXdXdXuX$XiX                                        ",
"                                                                  vXvXvXvXxXdXpXuX                                      ",
"                                                                +X>XnXN.< 1XdXaXuX                                      ",
"                                                                5XsXnXdXpX+XdXaX0X@X                                    ",
"                                                              5X0XdXnXsXuX3XaXsXuX@X                                    ",
"                                                              uXxXaXvXwXcXxXaXsXuX$X|.                                  ",
"                                                              Z.Z.Z.xXL.eXL.T.rXuX$X X                                  ",
"                                                              MXMXtXaXjXjXMXjX#XpX0X@X%X$X                              ",
"                                                            tX-Xt ;XrXU $ hXeX=XpXuX3X$X$X$XqX                          ",
"                                                            ;X=Xo -XaXU T jX;X).aXpXiXiX0XpXuX                          ",
"                                                          zX-X;X-XwXaX).-X-X).wXdXdXuXuX3X.X XdX                        ",
"                                                        mXmX=X=X`.m.R.&XfXmXmXlXdXdXaXuX$X%X3XS..X                      ",
"                                                      ,XmXmXmX] [ [ Y f mXmXmXmX8XdXuX0X$X X|.                          ",
"                                                      :XmXkXkXr 8 e 4 R kXkXkXkX5XaXuXiX%X|.D.                          ",
"                                                      :XgXgXkXwXd w ^.dXfXgXkX8XuXqX$X$X.X!.S.                          ",
"                                                        @X#XuXdXxX@XaXdXaXaX6X2X$X%X@X|.!.F.z.l.                        ",
"                                                        .X/.$XuXrX0XpXqXqX0X$X.X|.|.!.D.S.u.c.                          ",
"          A A D                                 aX        /.~.$X3X$X2X5X2X@X/.~.J.D.S.i.y.d.                            ",
"      :.        +.@.            1.4.4.1.>.O.K 0 Q.aXiX*Xx.z.a.~..X.X/. X.X~.D.S.a.u.y.e.r.F a                           ",
"    >.        Z 9 :.        >.<.4.4.4.1.>.$.K V C iXx.x.x.c.j.u.J.J.. A.Q.H.a.p.y.e.e.e.7.j z k                         ",
"  >.        ,...A Z     K O.&.<.1.4.5.2.,.#.o.Z C qX{ g.l.g.g.g.e.y.o o Q p.H.e.r.e.e.7.j v b v j                       ",
"  >.        K =.-.....A V O.#.,.2.v.v.}.}.K.S.9. ..Xh.v I g.9.7.8.e.' ].m.A.aXu.e.sX8.F x P M b j i                     ",
"  @.        ..2.,.,.K +.V O.*.v.%X6X8XOX[.M.|.0X0X$XQ.j s r 7.7.8.e.u.S.~.0.pX0XS.dXG i z n b b k i         xXxX        ",
"    |       K 6.3.#.@.X.A =.5XyX6XG.oXC.:XB.[.w.U.T.K.G 9 2 3 H G f.0.D.dX3XS.sX2XpXT 2 c n b n c p r aX3XsXnXpX2X      ",
"                  X.,.C 8.lXyX7XC.>X4XOX[.oX[.[.G.U.K.K.N 9 0 0 t G e.sX.X3XuXpXnXnXdX8.x k k j h i 5 @XdXxXxXdXpX0XJ.  ",
"                  O.Z H 7XyXP.<X8X4X1X>XOXoX[.I.U.G.- B.r i s s j 9 q.S.pXpXuXxXnXnXxXj.7 7 7 y 7 6 4 t vXaXaXdXxXpXJ.  ",
"                  +.| zXP.Y.A.] 4X4X1XOXOX[.[.U.U.G.w.d 7 p x c k # N q.u. X3XsXxXxX0X/ 4 4 4 4 4 6 4 2 <X0XuXpXpX3XJ.  ",
"                  *.D.zXzX7XyX8X_.E.[.OX{.[.[.U.U.y.d 7 p s P n u @ @ # N S S ( F.F.i.9 5 4 5 4 5 4 3 1 3 $X0X$X@X|.S.  ",
"                  6.zX9XP.7X7X8X4X1XoX{ [.[.I.U.C.J 8 i h p P [ + + + O @ . 9 @ 2 i 2 4 4 4 4 4 6 6 3 1 2 J 3X3X0X/.S.  ",
"                   .fXzXyX7X6X8X4X1X>X+XU.Y.U.U.s.i p j k h j n X X X O . . O @ X c n j 6 7 7 7 6 4 4 5 1 1 ` .X!.i.Q.  ",
"                    5XP.,XY.8X8X4X>XOXoXh.U.U.G.u s g k k [ P K D +.#.X.+.o.+ O + n P z 6 8 i 0 7 6 6 4 3 1 2 r.a.Q.Q.  ",
"                    ^ yX[.6X8X8X4X>XOXoX_.A.U.U.i j j c c P L o.#.%.+.-.-.#.,.;.B v n 4 i p i i i 6 7 6 6 3 5 3 r.u.    ",
"                    # D.7XP.B.G.1XC.w.oXG.) ( G.s h z k c v I $.-.-.<.+.<...X.#.+.L s x j p s p i i 7 7 6 6 4 4 9       ",
"                      B  .+XY.>X>X>X[.{.I.D.;.X.i h z p k a ) -.,.<.<.1.<.<.<.&.-.K b M k p h h p p i i w e e e 6       ",
"                          D S H ^ ^ H A ....    y k i s i = : n.g.<.<.2.2.2.1.,.-.;.v v p g k k j h p i 8 7 6 6 6 4     ",
"                                                j s 8 r & % > n.n.Z.j.k.2.2.1.<.-.+.k c i j k k k j h g p i y 7 6 3     ",
"                                              y p 7 u = , & ; b.n.Z.V.Z.L.S.g.k.-.=.L h 7 j c k k j j j p i i 0 7       ",
"                                            u s 7     ) b.: % : n.n.V.n.V.V.Z.V.n.n.) j 8 j k c j j j h g p p i w       ",
"                              aXpX0X$X@X|.R j R       ! ) b.= = > b.b.n.n.V.n.N.n.b.; l 8 j c k j j g g g g g p 6       ",
"                              uX2X@X/.J._ F t.e.q.q.q.~ Q - ; % ; ; > : b.b.b.b.n.b.* t p g k k k j g p p p g i         ",
"                            %X X~.H.S.r._ r.( ~ ! ! E E W W = %   ; ; ; ; ; > > > ; * & g g c k k j g p i p p           ",
"                          %X~.J.S.S.i.i.u.y.0.q.~ ! ! E E E             ; ; ; ; * % % & p g m k k k j g p p 6           ",
"                          ~.F.F.D.F.S.i.i.            y.0.0.                        & & < i k c k j j g g 5             ",
"                        ~.J.y.J.F.                                                  = % & w k k k k k g 7               ",
"                          i.J.S.                                                    ( y.- T k m k k k 8                 ",
"                                                                                    y.S.i.( j k k j                     ",
"                                                                                    D.J.F.e.  k i                       ",
"                                                                                  F.@X#X|.i.                            ",
"                                                                                  2XpXpX3XD.                            ",
"                                                                                $XdXvXxXdX X                            ",
"                                                                              (.qX0XxXsXvX$X                            ",
"                                                                              XX.X@XdX#XqX0X                            ",
"                                                                            S.H.y.|.2XF.@X.X                            ",
"                                                                            S.D.0.D.J.e.D.H.                            ",
"                                                                              J.y.!.D.p.H.A.                            ",
"                                                                                        !.                              ",
"                                                                                                                        "
};
