/* XPM */
static char *_877a8e1c2244fc5bee3cba3471e861ffW9MVWtRh3v1zg5g[] = {
/* columns rows colors chars-per-pixel */
"60 60 199 2 ",
"   c #1F242A",
".  c #24292C",
"X  c #272A2C",
"o  c #32312F",
"O  c #292E34",
"+  c #262E34",
"@  c #342F33",
"#  c #2B3235",
"$  c #2C353B",
"%  c #2E393E",
"&  c #273238",
"*  c #313332",
"=  c #3A3A36",
"-  c #33363A",
";  c #38373C",
":  c #343A3D",
">  c #3B3C3C",
",  c #383635",
"<  c #423C3B",
"1  c #3C403E",
"2  c #43423D",
"3  c #4A443C",
"4  c #2D3740",
"5  c #2F3B42",
"6  c #343D43",
"7  c #3A3E42",
"8  c #363E49",
"9  c #3B3E4B",
"0  c #423F45",
"q  c #364045",
"w  c #3C4245",
"e  c #364149",
"r  c #3B444B",
"t  c #3E494E",
"y  c #3D4351",
"u  c #3E4951",
"i  c #434544",
"p  c #494645",
"a  c #454945",
"s  c #4A4B45",
"d  c #42464B",
"f  c #49474A",
"g  c #444A4D",
"h  c #4B4C4C",
"j  c #514E4B",
"k  c #4D514E",
"l  c #52524E",
"z  c #5E574F",
"x  c #434551",
"c  c #444C53",
"v  c #4B4E52",
"b  c #444F58",
"n  c #4C4F59",
"m  c #504E51",
"M  c #465155",
"N  c #4C5254",
"B  c #45535A",
"V  c #4C555B",
"C  c #4E595D",
"Z  c #535454",
"A  c #595754",
"S  c #555955",
"D  c #5A5955",
"F  c #53565A",
"G  c #545A5C",
"H  c #5A5C5B",
"J  c #645F5A",
"K  c #5D615D",
"L  c #63615D",
"P  c #4D5660",
"I  c #4E5A62",
"U  c #535C63",
"Y  c #5A5D61",
"T  c #565E69",
"R  c #566165",
"E  c #5B6263",
"W  c #566169",
"Q  c #5B646A",
"!  c #5F686D",
"~  c #5A6770",
"^  c #626563",
"/  c #636469",
"(  c #646B6D",
")  c #6D6C68",
"_  c #696861",
"`  c #716E69",
"'  c #6F716C",
"]  c #74716C",
"[  c #7B746A",
"{  c #626C73",
"}  c #667176",
"|  c #6E7473",
" . c #747472",
".. c #7C7974",
"X. c #7C7C7A",
"o. c #767877",
"O. c #827E7B",
"+. c #817D72",
"@. c #7D807B",
"#. c #83827C",
"$. c #8A857B",
"%. c #878175",
"&. c #928A7D",
"*. c #807E81",
"=. c #7F8480",
"-. c #848583",
";. c #8B8782",
":. c #8C8A84",
">. c #8D8D8C",
",. c #878A88",
"<. c #928D85",
"1. c #928D89",
"2. c #8B908D",
"3. c #959087",
"4. c #95938C",
"5. c #9B958D",
"6. c #9B988E",
"7. c #989187",
"8. c #899291",
"9. c #949493",
"0. c #9A9792",
"q. c #969894",
"w. c #9D9B94",
"e. c #939B99",
"r. c #9D9D9A",
"t. c #959698",
"y. c #898C91",
"u. c #A0998D",
"i. c #A0978E",
"p. c #A29D94",
"a. c #A19E9A",
"s. c #A89F96",
"d. c #9EA39F",
"f. c #A5A196",
"g. c #AAA397",
"h. c #A4A39C",
"j. c #ABA59C",
"k. c #ADA99E",
"l. c #B1AA9E",
"z. c #9E9EA0",
"x. c #9EA3A2",
"c. c #A4A4A3",
"v. c #AAA6A2",
"b. c #A5AAA5",
"n. c #ACABA4",
"m. c #A6A7AA",
"M. c #ACACAA",
"N. c #A6ABAA",
"B. c #B3ADA4",
"V. c #B8AFA6",
"C. c #B2AEAA",
"Z. c #B0A7A0",
"A. c #AEB0A5",
"S. c #AEB1AA",
"D. c #B4B1A6",
"F. c #B9B2A7",
"G. c #B4B3AB",
"H. c #BAB6AD",
"J. c #BAB5AB",
"K. c #BCB9AD",
"L. c #B7B9AE",
"P. c #ABADB1",
"I. c #B0AFB4",
"U. c #ACB0B1",
"Y. c #B5B4B2",
"T. c #BAB6B2",
"R. c #B7B8B2",
"E. c #BCBBB3",
"W. c #BCBCBA",
"Q. c #B9B7B9",
"!. c #C1BBAE",
"~. c #C0B7AE",
"^. c #C2BEB5",
"/. c #C2BDB3",
"(. c #C8BFB6",
"). c #C2BEB9",
"_. c #BEC1BB",
"`. c #BFC0B2",
"'. c #C4C1B5",
"]. c #C9C1B7",
"[. c #C6C2B9",
"{. c #C7C4BB",
"}. c #C4C2BB",
"|. c #CAC5BC",
" X c #CCC9BE",
".X c #C6C8BB",
"XX c #D1C9BF",
"oX c #C4C4C1",
"OX c #C9C6C1",
"+X c #C7C8C2",
"@X c #CCCAC4",
"#X c #CBCBCA",
"$X c #D2CEC4",
"%X c #D0CAC4",
"&X c #CED0CA",
"*X c #D3D2CC",
"=X c #D3D0C7",
"-X c #D5D6D1",
";X c gray85",
/* pixels */
"k D K H G H K E N G E K ^ D D <.C.Z.v.Z.B.J.V.l.Z.j.a.v.v.9.7 f 7 c x r x t e b b B V Q F Y t.t.0.p.j.k.A.L.n.p.5.p.p.w.",
"s Z S S C C C K G F H G H Z Z 1.).Y.T.).(.~.~./.H.H.G.Y.G.r.w d g v r 9 e e 5 e 8 B F G P | M.a.M.G.L.E.{. X[.H.K.K.H.n.",
"h N S C C C C R Q C F N F f Z 9.).C.V.^.(.V.V.(.~././.G.M.w.> = v v 6 4 r y 8 e e V n r d -.W.c.n.A.G.L.^.|.}.L.J.G.n.p.",
"N S K G S C R U ( V M M Z d Z a.).E.T.^./.~.~.(.F.H.B.a.c.r.1 - v c 6 7 B P c u U Q v 6 - ,.W.M.G.G.L.'.{.OX].'.^.(.L.B.",
"N S C C C U I U W B u g v 0 F c.W.).T.B.B.~.(.~.K.J.v.r.n.M.k i N M e t R R I B } Q c i w >.M.M.G.L.`.'.{.].{.|.'.'.H.n.",
"u N N C M C V B I u u c v d U c.T.W.J.f.j./.(.J./.J.j.h.G.U.S N K C g M R R u u Q V d N i >.r.m.v.n.L.W.W.L.K.E.(.H.j.<.",
"M N M u u I B B u u P V v g Y c.oX).T.G./.%XXX(.J.B.n.C.E.m.h h K C M M I C u B I u t M w 9.x.M.A.G.'..X|.E.E.'.@X'.B.p.",
"N C C C I I I B e P Q I P v Y c.oXG.C.J.(.].(.~.B.B.J.W.W.h.> w S G M u B C C R W V d M w c.M.E.A.G.W..X[.H.H.^.B.n.g.0.",
"M t N R I B u B e B u e V c F m.Y.Y.H./.(.|.(.~.g.j.E.W.@Xr.h k C t M K ! R I C G } C - - e.W.G.G.L.E.[.|.{.'.'.k.L.J.n.",
"M M M C B e 5 e B e 5 & d : w t.T.Y.V.T.(.~.V.j.F.B.C.G.@Xm.a h S S C C C u t t M K C c h q.S.d.G.L.L.L.W.}.{.|.'.[.T.f.",
"1 t 1 M t 1 1 q t u B e c w v c.+XW.T.(.(.J.V.l.B.F.H.G.*XM.f N K R R M t 1 e t t N N S K r.W.G.L.E.L.`.'.'.[.{././.D.0.",
"1 1 M M t e e t 5 u B e d i h -.oXE.T.(.~.V.Z.~.!.|.OXT.#Xc.a S S K B q 1 1 e t q M M w N 9.R.S.E.K.`.W.L.F.A.n.k.B.n.g.",
"t k M t 1 1 1 t @.u t q t g f  .).T.).).J.B.V.~./.|.|.Y.#XM.D ( K K C 1 1 t N C t C G 1 S >.R.A.E.E.`.L.G.k.f.f.H.K./.H.",
"1 k k k t t M M I 5 1 1 1 * f 4.}.OX{.(./.(.(.XX].[.%X{.*XM.Z i k k t 1 1 M C C t t M 1 s @.E.}..X}.`.G.n.n.F.J.@X|.'.K.",
"1 1 1 1 1 t M B M t M t 1 1 k ..a.a.0.<.i.g.g.p.l.g.E.n.d.,.i = N M M C R R Q Q C u K M N S O.1.q.6.3.:.$.&.4.w.g.p.<.:.",
"8.6.q.q.d.d.b.d.N.U.`.e.A.R.$.h j h < = s L J s 3 < L A l ] -.N.d.d.d.b.d.e.8.8.e.8.S.b.>.i > ; s s s a 2 s k A Z l l z ",
"n.G.G.G.G.Y.G.C.).%XOXoXT.Y.0.j / G v v x F F 0 m f Z A h S h.E.k.k.A.D.L.D.F.`..XW._.#Xm.v Y / e g 7 # w f i h p h D ^ ",
"k.v.f.h.C.E.E.J.).).Q.Y.C.T.0.f E c r d b n n 0 d d Z F l D h.L.A.l.A.D.K.L.!.'.`.L.Q.#Xz.- 9 n 7 r 6 - e g g g d v F Y ",
"D.j.g.k.E.].(.G.Y.C.Z.C.T.).a.p U r 8 u b n n x r 7 v N k S h._.`.L.K.K.K.K.!.'.).).Q.#XP.O O N r 6 6 r w t d w e f v N ",
"j.k.D.K.[.{.H.l.Z.C.C.).OX%XZ.j v r e y c P P u x 7 f d 1 S b.&X.X'.`.'.`.K.K.!.^.{.T.oXI.7 6 W c $ 4 g t d t 7 w d h v ",
"&.f.D.F.~.V.V.B.C.(.|.%X(.).j.m 7 e u y b T T 9 x 8 f d a C A.&X`.`.`.`.'.!.!.(.E.}.C.M.c.w w N U 6 $ r u c c r g c v N ",
"%.6.j.k.j.Z.~.].~.|.(./.B.Z.1.0 v b P V P W T y r 6 M N N K x._.`.L.L.K.'.!.!.].E.(.n.c.9.> - : b 8 6 e u c V x c V F G ",
"&.u.g.l.l.V.~.(.~.~.J.V.Z.Z.7.p ! V P W T I P u 8 6 c V N C x._.D.D.F.'.'.'./.].K.H.G.E.r.: - # u u u 8 r u u M c c N P ",
"u.u.g.l.V.V.~.Z.~.J.B.~.(.%XZ.j | B c W I y 8 u e 8 c M g B x._.D.F.F.'.'.F.!./.J.k.G.#Xn.> : : e I B 9 e 8 6 x r u c v ",
"u.g.K.K.g.g.k.k.^.|.B.V.%X%Xv.) ( C C I b 9 9 9 x y n 7 G N x.oXI.G./.'.].K.F.F.'./.w.d.e.1 1 : 4 e Q 9 8 V 4 r r r w w ",
"s.F./.F.B.F.K./.(.).p.a.(.%XV.L ! G M g y e e c P c g - c f x._.oX~.J.n.k.k.B.J.D.G.v.G.M.1 # . % e ~ u 6 V r c 6 7 7 7 ",
"u.K.'.D.E.(.K.E.).*XC.G.C.n.a.< S E M d M c x n x 9 7 g G V Q.oXQ.).C.0.<.6.j.B.B.p.h.n.M.> > 7 $ $ U g # w 7 7 v v v h ",
"7.`.'.A.).}.C.G.v.).C.W.C.v.c.; t K Z c H F d v d 9 ; f f i x.N.a.m.Z.a.5.a.B.B.@XM.C.b.c.* - ; : + F N : d f e v v h h ",
"w..X#XE.+XOXE.}.}.W.m.W.oX}.M.1 1 K k k Y F 0 x m 0 @ < 0 p c.Y.9.c.I.~.I.).(.).E.v.T.M.c.x 6 O # . f F d N F f d f j j ",
"#.d.d.4.q.q.q.c.Y.r.1.t.9.>.-.Z 3 k s 1 m 0 0 f 0 0 7 0 p s ) O.*.1.9.*.*.1.1.<.v.a.z.9.o.v 0 O 7 # f F v k h > f p p f ",
"a l D H S l Z S v p G F f f S ,.A.d.d.d.a.9.9.z.z.z.a.9.a.O.0 p f m 0 0 0 < < < < 0 f f v y.P.P.P.M.P.Q.Y.M.n.c.a.0.1.O.",
"a 2 Z E H k d 7 h - F Z h v S b..XD.A.L.C.z.c.C.Q.Q.I.c.Q.i.@ , ; ; ; ; ; < < 0 @ ; , , 6 z.#X#XW.oXW.oX#XQ.W.+XoXT.C.a.",
"= w f c g d e e w N v Z v S A a.F.l.g.&.F.K.L.L.F.C.a.c.I.r.; 0 - : q 6 8 8 8 9 9 9 9 0 f r.@X^.}.#XOXW.).T.T.).).T.v.0.",
"6 7 w w r e q q c F c v f f j a.l.F.!.F.l.l.k.`.L.L.v.v.Y.c.i h : % q q 8 8 8 y 9 9 0 0 p 0. X[.@X%XOX).).T.T.T.W.C.v.0.",
"w w w w e u u u V F c f > i h h.!.!.`.!.l.l.l.D.J.T.C.M.Y.c.a Z % 1 q q 9 8 y y 9 9 0 n p 4.|.{.OX@X(.).).E.G.J.G.C.a.0.",
"t w r r u u u P r c r w w f F C.XX`.l.l.D.F.D.l.C.T.C.v.G.r.i l 1 q q q 9 9 y x 9 9 0 n p q.+X{.[.[.).E.}.(.T.J.J.B.g.5.",
"7 7 e e r r u I r c r g f h D Y.XX`.l.g.F.!.K.D.G.E.G.A.G.r.3 S q q q 8 9 e 9 y 0 9 0 f f r.OX).(.(.~.~.].(.V.B.J.B.s.7.",
"$ 6 r r e e u I V V x V v M Z M.K.K.F.!.`.`.K.J.G.T.S.n.G.w.1 k q q q e r y 9 0 0 9 9 f h r.#XE.).(./.~.(.H.Z.g.B.Z.s.7.",
"% r c t e u P ~ I I u N N N Z h.g.l.F.'.'.F.L.D.B.G.A.A.G.d.1 s t t e r x x x x x 0 0 n F z.@XE./.(./.~.(.J.g.s.l.j.s.i.",
": r M u e r I { B B q g h v k c.g.g.l.F.K.K.F.k.D.J.F.G.E.b.3 k t t t d x b x x x 0 f F F m.#XT.F./.~.~./.V.g.s.s.j.j.g.",
"1 k u q 1 t C R c q t r k k k q.n.B.J.L.'.K.L.G.`.A.A.b.`.b.3 k Y c f N F v x x 0 ~ / m Y C.c.v.G.J././.B.u.6.g.l.J.B.u.",
"1 t t q q M R R M r N N Z a a :.j.k.D.F.J.J.L.G.`.d.`.`.`.`.k 3 ^ N f v m v v Z P P n m F z.I.oX^.'./.J.Z.g.j.D.Z.B.i.+.",
"t t 1 1 q u N t r 1 w a 2 1 s :.n.B.V.J.L.E.E.`.d.S.`.`._.`.3 k ^ Z h m m m h Z Y m m m m 1.m.I.^.^.E.G.B.B.C.B.p.0.;.[ ",
"2 1 w 1 w t t 1 N w w a 2 i _ f.n.M.C.T.L.E.R.R._..X_.`..Xb.S K Z m m A Z Z l k 0 m J m H m.;X%XY.W.).E.E.W.Y.v.h.n.a.9.",
"1 2 s s g k c t k a 2 3 2 3 z [ 0.a.a.v.b.v.h.d.S.A.d.4.d.=.K ' l l Z D H S A D l k H Z m o.v.z.h.b.n.v.n.n.c.4.4.r.q.-.",
":.d.b.b.d.x.d.4.@.2.4.d.3.@.[ z j j D H H D Z k @.( ' ^ @.@.@.d.h.h.c.h.h.k.A.G.L.v.A.L.1.Z J H D Z f i a h h a Z L A i ",
"h.L..X_.R.R.S.h.d.b.A.E.l.u.%.3 0 p f m m j h h K S K K | @.R.&XG.E.E.L.L.L.}. X`.R.+X-XG.2 = > K Z i 1 i w a h 1 f p = ",
"w.A.`.`.W._.L.h.h.G.D.L.l.j.6.3 i f f h v v k k K M S k G K b._.h.D.E.K.L.L.J.L.L..X+X_.h.i i h G f 7 7 > = > d i N N v ",
"3.k.j.H.}.(.(.E.J.).V.C.Z.J.g.J f ; g 7 r r Y V t N K S S K A.+X_.D.D.'.'.K.D.k.j.}.W.#Xw.i w c w e 7 6 6 r g c o.{ G g ",
"$.g.j.J.T.F.).(.).(.J.V.Z.J.g.D v 6 9 r V u V c t t N N K ^ A._.L.L.K.K.K.K.F.F.D.OX[.*Xh.c i V w t q 6 6 c U { r d v N ",
":.Z.B.B.C.j.J.~.~.).J.B.B.J.a.j Y f 8 e I M r e t q g g S K d.A.w.D.L.D.k.F.'.!.(.$X@X-XS.Z c N w : $ y U Q F c : 7 t v ",
"<.Z.l.Z.j.a.Z.J.V.J.B.J.J.~.s.j / F r c Q M % e t 1 t k S K d.A.h.G.J.A.g.l.!.'.|.=X#X-XR.Z g g t 9 u V Q Y e . w d g N ",
"$.6.5.5.p.p.Z.V.n.J.G.H.E.(.s.s Y F x V Q M $ t t q g k S K b.+X`.`.F.K.F.B.D.'.@X$X$X#XR.N f w c I W U x 6 6 6 $ 7 v / ",
"$.0.<.7.p.p.k.v.V.)././.K.E.p.p f v r U V c e u B t t k h a q..X_.A.k.`.'.J.!.'.[. X@X+XR.k d q c V V c 6 $ 6 d i r g G ",
"4.f.0.0.p.p.h.h.T.).).T.G.V.5.i 7 r u U t M u M C t r i w 1 ,.L.A.h.g.D.'. X].].H.^.+XoXQ.k M i g r 6 6 r r q : N x w h ",
";.p.1.1.p.0.v.j.J.E.J.V.c.j.<.2 w d c W e B M u B 1 1 1 a 2 4._.A.D.F.F.'.XXXX'.G.K.+X_.Q.k N g c x e 6 6 9 r r 7 - 7 N ",
"O.0.;.#.a.C.v.C.T.G.E.C.v.V.>.o - O $ y u u e % $ q 1 g 1 s q.`.d.6.f.k.k.'.XX!.XXG.L.*XY.f d R t r 6 6 6 $ $ & w 6 d v ",
"] 1.;.O.w.v.0.a.v.v.G.v.a.C.:.* .   & q 5 $ % & & % 1 a 1 s 2.L.h.D..X`.k.F.XX.X X!.W.}.r.w : w e w r 6 6 6 - 4 g w d v ",
") 1.4.1.h.v.0.p.1.4.r.0.4.a.O.o . . 6 7 $ + $ % & 1 % r a k @.d.A.`. X'.k.l.!.'.E.H.[.E.9.k h w r r r 6 6 6 : 6 g 7 r v ",
"= L ] ` ....` _ ..-.<.;.:.4.] o # - r y 4 $ 6 8 q q 1 1 a k  .d.A.D.D.A.k.D.F.B.4.3.n.c.#.a g e r e r r q 9 6 7 e ; w N "
};
